<svg id="Layer_1" data-name="Layer 1" xmlns="http://www.w3.org/2000/svg" viewBox="0 0 15.48156 15.48208"><defs><style>.cls-1{fill:#00e5ff;}.cls-2{fill:#0d47a1;}.cls-3{fill:#29b6f6;}</style></defs><title>logo</title><path class="cls-1" d="M2.68408,13.59045a0.2193,0.2193,0,0,0-.08194.02429,1.12236,1.12236,0,0,1-.7052.04044,0.99043,0.99043,0,0,1-.73175-0.7883A1.33757,1.33757,0,0,1,1.201,12.1651a1.22281,1.22281,0,0,0,.06232-0.22742,1.13961,1.13961,0,0,1,.07156-0.23981c0.31067-.75668.65265-1.49979,0.97513-2.25134,0.22226-.518.44788-1.03455,0.67114-1.55212q0.46747-1.08366.92987-2.16949c0.05081-.11914.09851-0.23962,0.14771-0.35947a0.43635,0.43635,0,0,0-.10339-0.51392,2.26444,2.26444,0,0,1-.18527-0.20071,0.61813,0.61813,0,0,1-.03937-0.73325,1.74187,1.74187,0,0,1,.55338-0.62405,0.81053,0.81053,0,0,0,.19025-0.16364,0.4479,0.4479,0,0,0,.101-0.24164,0.65631,0.65631,0,0,1,.13708-0.28152A1.09689,1.09689,0,0,1,6.2131,2.33725a1.07833,1.07833,0,0,1,.45575.79984,0.46717,0.46717,0,0,1-.05762.24976c-0.06.11209-.10867,0.2301-0.17136,0.34048a0.4141,0.4141,0,0,0-.03043.33307,2.52869,2.52869,0,0,0,.26129.58276c0.45111,0.78387.911,1.56262,1.368,2.343C8.43039,7.65475,8.826,8.321,9.21216,8.99283a0.15571,0.15571,0,0,0,.11017.11255,0.144,0.144,0,0,0,.09183-0.12485A2.489,2.489,0,0,0,9.50754,8.716q0.51425-1.5705,1.1449-3.098c0.26541-.64026.526-1.28284,0.819-1.91144a6.63068,6.63068,0,0,1,.68723-1.20389,2.06278,2.06278,0,0,1,.54657-0.515,0.28733,0.28733,0,0,1,.16962-0.06372,1.19489,1.19489,0,0,1,.41269-0.08633,0.78379,0.78379,0,0,1,.54971.21191,1.38266,1.38266,0,0,1,.31152.42783,2.80963,2.80963,0,0,1,.25043.81439,2.217,2.217,0,0,1,.0293.27866,0.91552,0.91552,0,0,1-.01538.193,0.236,0.236,0,0,1-.07947.16342,0.5574,0.5574,0,0,1-.39047.17651,0.8711,0.8711,0,0,0-.5293.21674,1.055,1.055,0,0,0-.23038.31021c-0.28418.56351-.55536,1.133-0.808,1.71158a23.04233,23.04233,0,0,0-.84924,2.27151c-0.19766.62457-.3808,1.25351-0.52408,1.89337a4.03057,4.03057,0,0,0-.09824,1.05,0.59753,0.59753,0,0,0,.12732.30081c0.04071,0.06223.088,0.12,0.1283,0.18256a0.66271,0.66271,0,0,1,.04681.60895,1.32346,1.32346,0,0,1-.56155.69058,0.768,0.768,0,0,1-.49792.1022,1.70734,1.70734,0,0,1-1.09607-.6033,1.26681,1.26681,0,0,1-.18274-0.29236C8.45279,11.722,7.94666,10.95078,7.4776,10.1579c-0.40808-.68979-0.80087-1.3884-1.196-2.08566C6.08051,7.71738,5.88266,7.3605,5.66617,7.01456a0.455,0.455,0,0,0-.09793-0.11414,0.07867,0.07867,0,0,0-.11081.00125,0.42457,0.42457,0,0,0-.1059.14389q-0.29059.591-.55853,1.19269C4.6239,8.62,4.45917,9.00372,4.31268,9.39487a5.549,5.549,0,0,0-.35583,1.28738,2.60411,2.60411,0,0,0-.02332.344c0.00351,0.247.00021,0.49387-.01471,0.7406A2.25067,2.25067,0,0,1,2.887,13.49838,1.18578,1.18578,0,0,1,2.68408,13.59045Z" transform="translate(-0.04284 -0.02218)"/><path class="cls-2" d="M14.32538,3.91541a0.636,0.636,0,0,0,.08768-0.15192,0.21759,0.21759,0,0,1,.05447.07486,8.0997,8.0997,0,0,1,.37833.73639c0.08975,0.20239.17279,0.40775,0.24515,0.61749a7.90973,7.90973,0,0,1,.23178.7897c0.03989,0.17172.07172,0.34531,0.10129,0.51929,0.02557,0.15063.04434,0.30209,0.0629,0.45355,0.01193,0.09714.01544,0.19528,0.02271,0.293,0.01578,0.21286.01508,0.42609,0.0145,0.63931-0.00055.19867-.01492,0.39655-0.03113,0.59442-0.01892.23093-.05624,0.459-0.09613,0.68707a6.62556,6.62556,0,0,1-.17645.76022,7.87312,7.87312,0,0,1-.30417.85364c-0.06586.15326-.13239,0.30652-0.20731,0.455-0.08575.17-.17612,0.33813-0.27527,0.50143q-0.16132.26564-.33987,0.51959c-0.09323.1326-.18994,0.263-0.29483,0.3869-0.07562.08932-.14948,0.18021-0.22733,0.26755a7.06377,7.06377,0,0,1-.52573.53622c-0.16953.15375-.34192,0.30392-0.52368,0.44318q-0.3062.23456-.63293,0.43961c-0.20786.13092-.42279,0.24908-0.64215,0.35919a7.16935,7.16935,0,0,1-.73334.32019q-0.22765.084-.4613,0.1539c-0.15338.04623-.30743,0.089-0.46286,0.12671-0.18323.04443-.36816,0.08148-0.55466,0.10977-0.13217.02005-.26422,0.04221-0.39706,0.05618q-0.22806.024-.45752,0.03448c-0.16025.00732-.32068,0.01529-0.48129,0.01044Q7.373,15.49289,7.04773,15.467c-0.23636-.01889-0.46985-0.05579-0.70248-0.097a6.61682,6.61682,0,0,1-.76648-0.18338,7.55554,7.55554,0,0,1-.741-0.261c-0.23953-.10086-0.47552-0.20984-0.7049-0.333a7.95208,7.95208,0,0,1-.81406-0.50275,6.892,6.892,0,0,1-.63474-0.49942,0.81245,0.81245,0,0,1,.19409-0.10223,0.62835,0.62835,0,0,1,.17944.12711,7.41722,7.41722,0,0,0,1.61731.99973,7.57663,7.57663,0,0,0,4.83069.48029,7.85158,7.85158,0,0,0,1.27023-.41559,7.24625,7.24625,0,0,0,1.14127-.60913,7.54094,7.54094,0,0,0,1.2066-.97546A7.68943,7.68943,0,0,0,14.32,11.54434a7.49714,7.49714,0,0,0,.56125-1.18936,7.04429,7.04429,0,0,0,.37646-1.49017c0.03662-.2587.06223-0.51822,0.07507-0.77963,0.00766-.15588.015-0.31161,0.01035-0.46713a8.27938,8.27938,0,0,0-.15381-1.3848,7.1357,7.1357,0,0,0-.33664-1.16684,6.76992,6.76992,0,0,0-.41513-0.90924c-0.0343-.06046-0.06354-0.12375-0.102-0.182A0.05182,0.05182,0,0,1,14.32538,3.91541Z" transform="translate(-0.04284 -0.02218)"/><path class="cls-2" d="M12.87482,1.924c-0.05713.0173-.10532,0.05371-0.16055,0.075A1.35489,1.35489,0,0,1,12.462,1.81046a8.40339,8.40339,0,0,0-.857-0.58054,7.5583,7.5583,0,0,0-1.24362-.58A7.00992,7.00992,0,0,0,9.00424.30371a8.58548,8.58548,0,0,0-.872-0.08859c-0.15109-.00748-0.302-0.01376-0.4527-0.00986A8.15655,8.15655,0,0,0,6.28043.35852,7.44981,7.44981,0,0,0,5.03973.72369a7.22651,7.22651,0,0,0-1.30646.66458A7.40334,7.40334,0,0,0,2.09061,2.8096a7.85572,7.85572,0,0,0-.86078,1.22076A7.59136,7.59136,0,0,0,.34424,6.60147C0.311,6.82413.29047,7.04828,0.27441,7.27322,0.25778,7.506.26178,7.73834,0.26413,7.97067A6.92155,6.92155,0,0,0,.385,9.13507a7.1974,7.1974,0,0,0,.26361,1.01547,7.69359,7.69359,0,0,0,.61133,1.3634,0.4173,0.4173,0,0,1,.091.19174,2.05433,2.05433,0,0,1-.08759.232C1.14322,11.75717,1.03662,11.56888.935,11.37744c-0.094-.177-0.17953-0.358-0.25916-0.54172-0.08716-.201-0.16333-0.40634-0.23288-0.61441C0.37021,10.00369.3063,9.78384,0.25333,9.56085,0.21033,9.38.1734,9.19766,0.14532,9.01379,0.12476,8.87939.10294,8.745,0.08868,8.60986,0.07294,8.46024.06116,8.30994,0.05511,8.15964,0.04907,8.009.03989,7.85837,0.04376,7.70731q0.00879-.34415.03671-0.6871C0.09924,6.78409.13562,6.55075,0.177,6.31848A6.583,6.583,0,0,1,.35907,5.55942a7.99185,7.99185,0,0,1,.266-0.75519c0.0769-.18439.159-0.36682,0.25055-0.54456a7.94117,7.94117,0,0,1,.42612-0.73538c0.13766-.20892.28235-0.41226,0.43781-0.60791C1.85822,2.767,1.9841,2.62378,2.114,2.48392c0.13974-.15045.28647-0.29312,0.4379-0.432A7.60373,7.60373,0,0,1,4.95148.55469c0.18674-.07236.37592-0.13641,0.56668-0.19711C5.66409,0.31116,5.81155.27133,5.96,0.23541c0.1879-.0455.37811-0.08054,0.56885-0.11292,0.14841-.02518.29758-0.04382,0.44675-0.06229,0.09714-.012.19528-0.01627,0.293-0.02286,0.18887-.01273.378-0.015,0.56729-0.01517C8.05869,0.02194,8.2807.03473,8.5025,0.05338A7.86946,7.86946,0,0,1,9.32425.174a6.34952,6.34952,0,0,1,.6265.15173A7.96822,7.96822,0,0,1,10.80557.63c0.15323,0.06567.30646,0.132,0.45468,0.20706,0.19742,0.09991.39206,0.20609,0.58041,0.32352q0.22742,0.14182.44678,0.2951c0.12872,0.09027.25189,0.1886,0.37524,0.28625C12.73581,1.7998,12.80432,1.86316,12.87482,1.924Z" transform="translate(-0.04284 -0.02218)"/><path class="cls-3" d="M14.32538,3.91541c0.05328,0.09586.10773,0.1911,0.15955,0.28775a6.86256,6.86256,0,0,1,.303.64847c0.05148,0.12589.10342,0.25165,0.14734,0.38016a6.86,6.86,0,0,1,.20728.69315c0.0365,0.16037.073,0.32092,0.0997,0.48346,0.024,0.146.04938,0.29166,0.06448,0.43893,0.01312,0.12811.0271,0.25616,0.03946,0.38434C15.34943,7.265,15.347,7.29883,15.349,7.33231c0.01147,0.18417.0192,0.36856,0.0123,0.55292-0.00732.19565-.0188,0.391-0.037,0.58621-0.018.19275-.0444,0.384-0.07593,0.57462-0.01984.12-.04523,0.2392-0.07043,0.35825-0.03067.14493-.06329,0.28961-0.10632,0.4313-0.04706.155-.099,0.3085-0.15167,0.46179-0.07065.20566-.15634,0.40488-0.24393,0.6033-0.07037.15945-.14987,0.3147-0.23373,0.46783q-0.13078.23886-.277,0.4682c-0.10678.16678-.22134,0.32825-0.34091,0.4863a7.05754,7.05754,0,0,1-.50443.60358,7.16624,7.16624,0,0,1-.5755.54807c-0.13882.11707-.27972,0.23145-0.42453,0.34073-0.13727.10361-.27957,0.20062-0.425,0.29263-0.12326.078-.24628,0.15656-0.375,0.22537-0.14536.0777-.28955,0.15723-0.4386,0.22836-0.16141.077-.32437,0.15033-0.49051,0.21545-0.12173.04773-.24466,0.09332-0.36963,0.13348-0.17291.05557-.34464,0.11484-0.52133,0.15714-0.21136.05063-.4227,0.10117-0.63788,0.13467-0.182.02832-.36435,0.05261-0.54749,0.07123a7.4855,7.4855,0,0,1-.91144.03058,7.07675,7.07675,0,0,1-.72186-0.054c-0.17093-.02106-0.341-0.04581-0.51007-0.07767-0.11044-.02081-0.21979-0.04675-0.32935-0.07184C5.91818,15.07251,5.79556,15.0415,5.67429,15.005c-0.162-.0488-0.324-0.09805-0.48227-0.15814-0.15384-.05841-0.309-0.11441-0.45856-0.18259C4.56625,14.588,4.4,14.50891,4.238,14.42123c-0.1806-.09778-0.35864-0.2-0.53116-0.31107Q3.47824,13.96291,3.26077,13.799c-0.10846-.082-0.21182-0.17029-0.32083-0.25137a0.43156,0.43156,0,0,1-.06171-0.05936,1.51615,1.51615,0,0,1,.15155-0.10709,2.24518,2.24518,0,0,0,.385-0.3844,2.53734,2.53734,0,0,0,.28836-0.43634,1.6759,1.6759,0,0,0,.1564-0.49731c0.02274-.14645.033-0.29358,0.045-0.44113,0.017-.20865.00717-0.41678,0.01044-0.62506a3.309,3.309,0,0,1,.06363-0.56839A6.79859,6.79859,0,0,1,4.325,9.31332c0.12057-.32047.25729-0.63409,0.39124-0.94885,0.075-.17624.15912-0.34854,0.23773-0.52325C5.07684,7.568,5.20813,7.2988,5.33926,7.02954a0.4432,0.4432,0,0,1,.10007-0.13913A0.09385,0.09385,0,0,1,5.59,6.89178a0.51786,0.51786,0,0,1,.0954.11627C5.86548,7.302,6.036,7.6015,6.205,7.90186q0.21487,0.38173.43173,0.76236C6.823,8.9906,7.00854,9.31741,7.19794,9.642c0.21591,0.37.431,0.74054,0.6554,1.10538,0.16422,0.267.32892,0.53375,0.48975,0.80276,0.09824,0.16434.18951,0.33292,0.28125,0.501,0.1113,0.204.21841,0.41025,0.33,0.614a1.36531,1.36531,0,0,0,.34131.38446,1.79955,1.79955,0,0,0,.35587.228,1.41774,1.41774,0,0,0,.48474.14417,0.8081,0.8081,0,0,0,.46533-0.07907,0.95549,0.95549,0,0,0,.31851-0.26337c0.04279-.05444.08759-0.10736,0.12927-0.16284a0.92745,0.92745,0,0,0,.17731-0.41141,0.85086,0.85086,0,0,0-.00232-0.26514,0.59894,0.59894,0,0,0-.12949-0.26089,1.7125,1.7125,0,0,1-.16678-0.25912,0.40026,0.40026,0,0,1-.04388-0.18655c0.00134-.07678.00186-0.15363,0.00015-0.23038a3.01335,3.01335,0,0,1,.06107-0.6048q0.05681-.31352.13974-0.62143c0.06805-.25388.13892-0.507,0.20944-0.76019,0.13037-.46811.28232-0.92947,0.44-1.38889,0.11963-.34857.25211-0.69241,0.38913-1.03458,0.11212-.28.23328-0.55606,0.35349-0.83255,0.05539-.12735.11511-0.25287,0.1741-0.3786q0.24138-.51434.49557-1.02252a1.21011,1.21011,0,0,1,.2023-0.30338,0.80156,0.80156,0,0,1,.4711-0.25452c0.05426-.00763.10858-0.01483,0.16287-0.02216A0.56971,0.56971,0,0,0,14.32538,3.91541Z" transform="translate(-0.04284 -0.02218)"/><path class="cls-3" d="M1.351,11.70575C1.24878,11.531,1.14728,11.356,1.05618,11.17508c-0.09665-.192-0.18646-0.38684-0.26633-0.58649C0.726,10.42892.66254,10.26886,0.612,10.1048A4.63073,4.63073,0,0,1,.45459,9.53958C0.43945,9.45282.41022,9.36884,0.39352,9.28183Q0.34761,9.04283.31317,8.80209C0.291,8.6485.27518,8.49429,0.261,8.34,0.24936,8.21387.24454,8.08679,0.243,7.96008,0.24066,7.773.23651,7.58545,0.24683,7.39883c0.01065-.19275.02383-0.38556,0.04944-0.57761,0.023-.1727.04675-0.34512,0.079-0.5162C0.39474,6.20187.41864,6.09946,0.44272,5.9971,0.47391,5.86441.505,5.73175,0.54559,5.60178c0.05035-.16141.09833-0.32376,0.16-0.48145,0.05728-.14661.11081-0.295,0.1752-0.43845C0.958,4.5098,1.03815,4.33875,1.1301,4.17371c0.06949-.12469.13617-0.25119,0.211-0.37262,0.06131-.09946.12415-0.19818,0.19119-0.29428,0.06-.086.11746-0.17374,0.1813-0.2569,0.10168-.13245.20065-0.2673,0.30853-0.39453a7.432,7.432,0,0,1,.53473-0.57007c0.1001-.09558.204-0.1868,0.30988-0.27609q0.13417-.11311.27158-0.22177c0.13663-.10837.27841-0.20926,0.42188-0.30814A7.49937,7.49937,0,0,1,4.28,1.04813,7.22135,7.22135,0,0,1,4.96289.73367,6.97294,6.97294,0,0,1,5.9277.41653a7.407,7.407,0,0,1,.86588-0.163C7.02393,0.2251,7.25458.2063,7.48645,0.1937c0.151-.00818.30173-0.00961,0.45233-0.0072C8.137,0.1897,8.33472.20609,8.53247,0.22287c0.253,0.02145.502,0.06631,0.752,0.1062C9.334,0.337,9.3833.34744,9.432,0.35953c0.17392,0.04309.35022,0.079,0.52063,0.13324C10.1955,0.57,10.438.64868,10.67322,0.74966,10.82883,0.8165,10.9841.88409,11.138,0.95453c0.09552,0.0437.18707,0.09616,0.27966,0.14609q0.23955,0.12918.46863,0.27628c0.16708,0.10687.32919,0.221,0.48752,0.34033C12.47266,1.79172,12.56866,1.87,12.666,1.94656a0.17971,0.17971,0,0,1,.04834.05252c-0.09753.06888-.1907,0.14328-0.28171,0.22061a1.6614,1.6614,0,0,0-.18912.20609,3.72628,3.72628,0,0,0-.36511.53174q-0.2075.3577-.37946,0.73392c-0.05655.12424-.11508,0.24756-0.17041,0.37238-0.08826.19913-.17184,0.40015-0.25513,0.60138q-0.092.22215-.18787,0.44272-0.171.39537-.3299,0.79568c-0.11426.28668-.22781,0.57367-0.33856,0.86172-0.07468.19427-.14331,0.39087-0.21579,0.586-0.1926.51843-.368,1.04279-0.54251,1.5675a0.80864,0.80864,0,0,1-.075.17081c-0.03848.06247-.06366,0.06357-0.1167,0.01169a0.90348,0.90348,0,0,1-.12756-0.19879c-0.0932-.15619-0.18213-0.31491-0.27383-0.472Q8.701,8.14847,8.53455,7.86743,8.30122,7.4716,8.06763,7.076C7.91379,6.81384,7.76147,6.55081,7.60788,6.28854,7.48331,6.07587,7.35709,5.86417,7.233,5.65121q-0.21877-.37527-0.43512-0.752C6.70456,4.73746,6.60724,4.57794,6.52448,4.41028A1.983,1.983,0,0,1,6.3848,4.04175a0.38811,0.38811,0,0,1,.02994-0.30463c0.061-.10834.11075-0.22287,0.16879-0.33292a0.58813,0.58813,0,0,0,.01266-0.53275A1.38472,1.38472,0,0,0,6.29074,2.423a0.89806,0.89806,0,0,0-.48911-0.23746,1.17691,1.17691,0,0,0-.236-0.013,1.06412,1.06412,0,0,0-.4227.09918,0.84169,0.84169,0,0,0-.2663.16711,1.43729,1.43729,0,0,0-.26453.37253,0.49722,0.49722,0,0,0-.02377.1261,0.49717,0.49717,0,0,1-.19656.29922c-0.064.05-.13055,0.09677-0.19562,0.14542a1.62949,1.62949,0,0,0-.35278.38455,1.22251,1.22251,0,0,0-.158.297,0.58,0.58,0,0,0,.10086.57874,1.966,1.966,0,0,0,.181.19452,0.63274,0.63274,0,0,1,.08969.11176,0.40809,0.40809,0,0,1,.03244.38574c-0.1073.26886-.22153,0.535-0.334,0.80179q-0.15889.377-.32007,0.75311c-0.09329.2178-.18832,0.43484-0.282,0.65247C3.055,7.77042,2.958,7.99957,2.85934,8.22806,2.77588,8.42145,2.69052,8.614,2.60681,8.80728c-0.10367.23935-.20581,0.47937-0.31,0.71851-0.09177.21069-.186,0.42026-0.278,0.63086-0.07083.16229-.13928,0.32559-0.20969,0.48807q-0.08139.18773-.16513,0.37454C1.54163,11.246,1.44086,11.47357,1.351,11.70575Z" transform="translate(-0.04284 -0.02218)"/></svg>