<svg id="svg" version="1.1" xmlns="http://www.w3.org/2000/svg" xmlns:xlink="http://www.w3.org/1999/xlink" width="400" height="400" viewBox="0, 0, 400,400"><g id="svgg"><path id="path0" d="M295.429 44.100 C 295.178 44.951,294.974 46.704,294.015 56.200 C 293.109 65.172,292.289 70.993,291.478 74.200 C 291.144 75.520,290.496 79.120,290.037 82.200 C 289.578 85.280,289.016 89.060,288.787 90.600 C 288.559 92.140,288.207 94.480,288.005 95.800 C 287.620 98.316,287.119 102.163,286.389 108.200 C 286.150 110.180,285.785 112.775,285.577 113.967 C 285.370 115.158,285.200 117.431,285.200 119.018 C 285.200 127.336,289.048 120.728,294.177 103.600 C 296.998 94.178,297.483 92.452,298.224 89.200 C 299.547 83.390,299.575 83.207,300.815 72.600 C 301.605 65.838,300.896 55.746,299.186 49.400 C 298.262 45.972,298.080 45.363,297.657 44.300 C 297.118 42.944,295.803 42.826,295.429 44.100 M307.561 48.900 C 307.539 48.955,307.368 52.870,307.179 57.600 C 306.738 68.666,305.901 78.670,304.635 88.000 C 304.292 90.530,303.818 94.130,303.582 96.000 C 303.346 97.870,302.990 100.390,302.792 101.600 C 302.593 102.810,302.237 105.060,302.000 106.600 C 301.115 112.349,300.035 118.606,299.585 120.600 C 299.387 121.480,298.857 124.180,298.409 126.600 C 297.961 129.020,297.416 131.765,297.197 132.700 C 296.708 134.792,296.274 136.701,295.171 141.600 C 293.194 150.381,289.954 162.572,287.198 171.600 C 287.030 172.150,286.666 173.410,286.390 174.400 C 286.113 175.390,285.389 177.730,284.781 179.600 C 284.173 181.470,283.281 184.350,282.798 186.000 C 282.314 187.650,281.776 189.360,281.601 189.800 C 281.426 190.240,280.706 192.490,280.002 194.800 C 279.297 197.110,278.390 199.990,277.985 201.200 C 276.743 204.916,272.378 218.783,271.185 222.800 C 270.565 224.890,269.670 227.860,269.196 229.400 C 268.722 230.940,268.184 232.740,268.000 233.400 C 267.816 234.060,267.278 235.860,266.805 237.400 C 264.428 245.126,258.537 268.964,257.167 276.400 C 256.031 282.567,255.899 283.325,254.800 290.000 C 254.565 291.430,254.192 294.130,253.970 296.000 C 253.749 297.870,253.390 300.840,253.172 302.600 C 252.366 309.104,252.272 328.486,253.015 334.600 C 254.131 343.773,254.120 343.600,253.610 343.600 C 253.000 343.600,248.217 340.514,244.400 337.658 C 238.208 333.025,228.057 322.446,222.467 314.800 C 212.373 300.995,208.806 296.800,207.160 296.800 C 204.800 296.800,208.536 307.655,213.983 316.621 C 214.873 318.084,215.600 319.366,215.600 319.468 C 215.600 320.130,222.519 329.675,224.722 332.053 C 231.351 339.206,237.030 342.900,246.748 346.381 C 254.428 349.133,255.325 349.887,256.764 354.800 C 257.054 355.790,257.433 356.960,257.605 357.400 C 257.778 357.840,258.136 358.830,258.401 359.600 C 259.471 362.711,261.049 365.484,261.496 365.038 C 261.561 364.972,261.685 358.097,261.772 349.760 C 261.895 337.951,262.112 332.964,262.754 327.200 C 263.702 318.691,264.694 311.050,265.039 309.600 C 265.170 309.050,265.440 307.565,265.639 306.300 C 265.971 304.183,266.358 301.905,267.185 297.200 C 267.460 295.631,268.650 289.900,269.593 285.600 C 271.196 278.292,276.768 256.319,279.230 247.600 C 280.316 243.750,281.405 239.880,281.649 239.000 C 281.893 238.120,282.231 236.950,282.400 236.400 C 282.569 235.850,282.929 234.590,283.200 233.600 C 283.471 232.610,283.831 231.350,284.000 230.800 C 284.169 230.250,284.529 228.990,284.800 228.000 C 285.071 227.010,285.433 225.750,285.605 225.200 C 285.776 224.650,286.301 222.850,286.771 221.200 C 287.241 219.550,287.982 217.030,288.417 215.600 C 288.852 214.170,290.736 207.510,292.605 200.800 C 294.473 194.090,296.356 187.430,296.789 186.000 C 297.221 184.570,297.866 182.320,298.222 181.000 C 298.578 179.680,299.034 178.015,299.235 177.300 C 300.090 174.255,300.465 172.930,300.791 171.800 C 300.981 171.140,301.428 169.430,301.784 168.000 C 302.882 163.595,303.119 162.656,303.554 161.000 C 304.541 157.236,306.068 150.646,306.403 148.702 C 306.603 147.546,307.300 143.989,307.953 140.797 C 311.079 125.525,313.704 98.941,312.949 90.200 C 312.854 89.100,312.593 84.690,312.370 80.400 C 311.802 69.508,311.094 63.571,309.149 53.400 C 308.939 52.300,308.664 50.815,308.540 50.100 C 308.359 49.068,307.775 48.352,307.561 48.900 M142.267 65.467 C 141.701 66.032,142.067 67.039,143.900 69.966 C 144.945 71.635,146.050 73.450,146.356 74.000 C 147.932 76.835,150.720 82.418,151.350 84.001 C 151.744 84.990,152.308 86.340,152.603 87.000 C 162.832 109.834,164.093 155.737,155.384 188.200 C 155.030 189.520,154.289 192.310,153.737 194.400 C 152.718 198.255,152.275 199.879,151.555 202.400 C 151.335 203.170,151.002 204.340,150.816 205.000 C 148.934 211.663,143.608 227.013,138.742 239.800 C 137.105 244.100,136.978 244.429,136.454 245.700 C 135.592 247.789,135.271 248.613,134.000 252.000 C 133.298 253.870,132.561 255.805,132.362 256.300 C 132.163 256.795,131.838 257.605,131.639 258.100 C 131.181 259.241,130.045 262.310,128.196 267.400 C 127.396 269.600,125.871 273.740,124.807 276.600 C 122.554 282.653,120.197 289.350,119.315 292.200 C 118.975 293.300,118.372 295.190,117.976 296.400 C 116.641 300.476,115.827 303.255,114.403 308.600 C 111.846 318.198,110.520 324.055,110.012 328.000 C 109.771 329.870,109.403 332.390,109.194 333.600 C 107.987 340.605,108.613 365.600,109.996 365.600 C 110.547 365.600,111.464 363.847,111.775 362.200 C 112.534 358.171,112.790 356.878,113.164 355.200 C 113.385 354.210,113.748 352.500,113.972 351.400 C 114.196 350.300,114.548 348.770,114.756 348.000 C 114.963 347.230,115.603 344.800,116.178 342.600 C 117.268 338.428,117.996 336.079,118.411 335.400 C 118.546 335.180,118.889 334.190,119.174 333.200 C 119.458 332.210,119.836 331.040,120.012 330.600 C 120.189 330.160,121.255 326.920,122.381 323.400 C 125.442 313.836,129.544 302.483,135.532 287.000 C 137.453 282.035,140.141 274.900,144.199 264.000 C 145.223 261.250,146.209 258.640,146.391 258.200 C 146.573 257.760,147.082 256.410,147.522 255.200 C 147.962 253.990,148.627 252.190,148.999 251.200 C 149.371 250.210,149.938 248.590,150.258 247.600 C 150.578 246.610,151.007 245.440,151.210 245.000 C 151.413 244.560,153.273 239.089,155.344 232.841 C 159.388 220.642,159.608 220.304,160.196 225.400 C 160.483 227.888,162.910 242.689,163.607 246.200 C 166.204 259.284,167.430 264.038,171.035 275.000 C 174.476 285.463,178.639 295.249,182.777 302.600 C 183.272 303.480,184.233 305.190,184.912 306.400 C 193.697 322.058,209.330 338.544,222.329 345.860 C 228.042 349.074,235.121 352.084,238.200 352.607 C 239.080 352.756,240.688 353.131,241.773 353.439 C 247.660 355.113,247.081 353.317,240.600 349.799 C 227.745 342.820,213.056 328.307,202.749 312.400 C 198.545 305.913,191.366 292.537,189.437 287.600 C 189.051 286.610,188.461 285.170,188.126 284.400 C 187.294 282.484,187.015 281.775,186.000 279.000 C 185.517 277.680,184.969 276.240,184.782 275.800 C 179.283 262.842,172.995 228.730,171.571 204.128 C 171.103 196.035,171.412 147.630,171.960 143.400 L 172.219 141.400 173.086 145.000 C 176.190 157.887,180.282 183.035,181.198 194.859 C 181.666 200.898,182.081 204.868,182.970 211.800 C 183.535 216.206,183.847 218.149,184.800 223.200 C 184.987 224.190,185.345 226.170,185.596 227.600 C 185.848 229.030,186.213 230.920,186.407 231.800 C 186.602 232.680,186.978 234.390,187.244 235.600 C 190.086 248.554,193.448 257.551,195.075 256.557 C 196.624 255.611,196.679 251.861,195.600 220.800 C 194.031 175.596,192.604 159.794,188.392 141.003 C 186.750 133.678,185.412 128.672,183.686 123.400 C 182.679 120.324,181.971 118.397,180.013 113.400 C 177.925 108.073,170.789 94.660,168.519 91.798 C 168.344 91.576,167.040 89.866,165.621 87.998 C 155.810 75.070,144.029 63.705,142.267 65.467 M129.841 67.092 C 129.366 67.567,129.620 68.392,130.946 70.679 C 133.488 75.064,134.253 76.607,135.563 80.000 C 136.285 81.870,137.021 83.760,137.198 84.200 C 137.684 85.411,139.017 90.065,140.353 95.217 C 142.302 102.732,143.275 108.194,144.805 120.200 C 146.467 133.247,147.295 136.800,148.674 136.800 C 150.898 136.800,151.738 131.235,151.754 116.400 C 151.766 103.837,151.650 102.632,149.554 93.700 C 148.836 90.637,146.815 84.762,145.736 82.600 C 142.574 76.264,131.487 65.446,129.841 67.092 M280.914 84.605 C 278.601 86.225,265.051 109.470,257.250 125.200 C 251.910 135.966,251.172 137.551,247.189 146.800 C 243.975 154.264,238.690 168.261,237.599 172.200 C 237.416 172.860,237.057 174.030,236.800 174.800 C 235.877 177.569,233.897 185.159,232.982 189.433 C 232.609 191.175,232.142 193.320,231.945 194.200 C 231.540 196.008,231.414 196.700,229.462 207.800 C 227.535 218.758,224.000 243.408,224.000 245.888 C 224.000 248.146,222.879 245.852,222.442 242.700 C 222.160 240.665,221.774 238.010,221.584 236.800 C 221.249 234.662,220.920 232.236,220.013 225.200 C 219.772 223.330,219.410 220.540,219.208 219.000 C 219.006 217.460,218.644 214.580,218.403 212.600 C 218.162 210.620,217.799 207.830,217.597 206.400 C 217.394 204.970,217.042 202.405,216.814 200.700 C 215.743 192.684,215.540 191.267,215.200 189.400 C 214.999 188.300,214.627 185.960,214.373 184.200 C 213.706 179.579,212.547 172.806,211.397 166.800 C 210.536 162.304,207.826 150.571,206.779 146.800 C 206.320 145.150,205.680 142.810,205.357 141.600 C 204.733 139.263,203.378 135.130,202.800 133.800 C 202.609 133.360,202.066 131.830,201.593 130.400 C 200.560 127.274,200.054 126.086,197.757 121.400 C 193.973 113.681,186.042 105.448,188.779 112.081 C 189.562 113.977,191.768 121.613,193.264 127.600 C 195.839 137.906,197.181 146.387,198.391 160.000 C 198.616 162.530,198.990 166.670,199.223 169.200 C 199.456 171.730,199.817 175.690,200.026 178.000 C 200.432 182.497,200.918 187.377,201.598 193.800 C 201.995 197.544,202.306 200.553,203.211 209.400 C 203.413 211.380,203.757 215.250,203.976 218.000 C 204.483 224.385,205.175 231.143,206.394 241.600 C 206.907 246.006,208.994 258.080,209.919 262.000 C 210.361 263.870,211.121 267.200,211.610 269.400 C 212.098 271.600,212.820 274.390,213.214 275.600 C 213.608 276.810,214.331 279.150,214.821 280.800 C 220.592 300.242,230.771 317.983,240.152 324.948 C 242.896 326.985,245.690 328.800,246.083 328.800 C 246.187 328.800,246.390 323.355,246.535 316.700 C 246.774 305.678,247.294 297.112,248.388 286.200 C 248.900 281.083,250.029 272.554,250.797 268.000 C 251.038 266.570,251.399 264.320,251.600 263.000 C 251.801 261.680,252.167 259.430,252.415 258.000 C 252.662 256.570,253.017 254.500,253.204 253.400 C 255.533 239.664,257.819 229.509,261.982 214.400 C 262.437 212.750,263.363 209.330,264.040 206.800 C 264.717 204.270,265.423 201.660,265.608 201.000 C 265.793 200.340,266.330 198.360,266.800 196.600 C 267.270 194.840,267.835 192.770,268.054 192.000 C 268.274 191.230,268.609 189.970,268.800 189.200 C 268.991 188.430,269.327 187.170,269.546 186.400 C 270.646 182.548,272.711 173.668,273.221 170.600 C 273.818 167.013,273.655 165.836,272.538 165.677 C 269.211 165.203,255.594 195.017,249.279 216.600 C 247.540 222.544,243.106 242.172,241.577 250.700 C 238.257 269.204,237.230 278.744,236.957 293.600 C 236.706 307.205,236.830 306.944,234.197 299.400 C 230.953 290.102,229.551 275.037,230.811 263.000 C 231.651 254.972,232.040 251.763,232.386 250.000 C 232.580 249.010,232.946 247.030,233.199 245.600 C 234.128 240.353,236.536 230.180,239.354 219.600 C 240.145 216.630,241.694 210.510,242.797 206.000 C 244.627 198.512,245.676 194.511,248.039 186.000 C 248.497 184.350,249.046 182.370,249.258 181.600 C 249.471 180.830,249.798 179.660,249.984 179.000 C 251.044 175.249,256.121 159.918,258.147 154.351 C 261.544 145.022,264.216 137.841,265.238 135.300 C 266.173 132.975,266.351 132.509,266.800 131.200 C 267.064 130.430,267.443 129.395,267.640 128.900 C 267.838 128.405,268.162 127.595,268.360 127.100 C 268.557 126.605,268.936 125.570,269.200 124.800 C 269.464 124.030,269.833 123.040,270.018 122.600 C 270.502 121.453,273.242 113.988,273.615 112.800 C 273.788 112.250,274.941 108.920,276.178 105.400 C 277.415 101.880,279.057 97.110,279.828 94.800 C 280.598 92.490,281.380 90.240,281.565 89.800 C 281.749 89.360,282.103 88.497,282.350 87.881 C 283.350 85.395,282.513 83.485,280.914 84.605 M134.112 104.100 C 133.406 105.016,132.209 108.353,130.417 114.400 C 128.925 119.435,124.522 133.160,120.343 145.800 C 118.161 152.400,115.849 159.420,115.204 161.400 C 114.113 164.754,109.872 179.578,108.052 186.400 C 107.612 188.050,106.776 191.191,106.194 193.380 C 105.612 195.569,104.907 198.089,104.628 198.980 C 104.348 199.871,103.704 201.950,103.197 203.600 C 102.690 205.250,101.832 207.950,101.289 209.600 C 100.747 211.250,100.145 213.185,99.952 213.900 C 99.318 216.242,98.878 217.762,98.069 220.400 C 95.607 228.426,94.631 231.848,92.476 240.000 C 90.376 247.948,88.439 255.981,87.124 262.200 C 86.891 263.300,86.560 264.650,86.387 265.200 C 86.215 265.750,85.869 267.370,85.618 268.800 C 85.121 271.644,84.631 274.313,84.042 277.400 C 83.201 281.805,82.506 286.111,81.562 292.757 C 81.041 296.419,81.342 308.614,82.040 312.194 C 83.313 318.714,83.896 318.996,84.881 313.567 C 85.257 311.495,85.762 308.900,86.004 307.800 C 86.246 306.700,86.614 304.900,86.821 303.800 C 87.207 301.749,87.298 301.325,88.740 294.800 C 90.196 288.210,95.087 271.487,96.402 268.600 C 96.602 268.160,97.217 266.450,97.767 264.800 C 98.317 263.150,99.685 259.190,100.806 256.000 C 101.928 252.810,103.183 249.210,103.596 248.000 C 104.008 246.790,105.090 243.730,106.000 241.200 C 107.970 235.719,118.327 204.597,119.510 200.600 C 119.967 199.060,120.896 195.910,121.577 193.600 C 122.257 191.290,122.979 188.860,123.180 188.200 C 125.096 181.917,128.208 170.823,129.033 167.330 C 129.596 164.949,130.206 162.370,130.389 161.600 C 131.414 157.282,131.615 156.250,132.814 149.100 C 133.026 147.835,133.394 145.675,133.631 144.300 C 135.937 130.921,136.722 103.600,134.800 103.600 C 134.634 103.600,134.324 103.825,134.112 104.100 M140.076 180.300 C 138.804 182.098,135.646 188.466,132.488 195.600 C 127.590 206.666,124.322 214.308,120.516 223.600 C 119.750 225.470,118.715 227.900,118.217 229.000 C 117.718 230.100,117.174 231.450,117.008 232.000 C 116.842 232.550,116.277 233.950,115.753 235.112 C 115.229 236.273,114.800 237.400,114.800 237.616 C 114.800 237.832,114.458 238.772,114.041 239.704 C 113.261 241.445,107.742 255.663,106.318 259.600 C 105.880 260.810,105.378 262.160,105.201 262.600 C 105.025 263.040,104.664 264.030,104.400 264.800 C 104.136 265.570,103.775 266.560,103.599 267.000 C 103.259 267.848,102.095 271.021,100.847 274.500 C 100.433 275.655,99.872 277.410,99.600 278.400 C 99.329 279.390,98.958 280.650,98.776 281.200 C 98.490 282.066,97.690 285.503,96.403 291.400 C 95.809 294.119,94.737 300.619,93.995 306.000 C 92.878 314.098,93.131 334.841,94.434 342.000 C 95.452 347.593,97.104 353.043,98.435 355.200 C 98.638 355.530,99.107 356.385,99.477 357.100 C 101.101 360.244,101.493 358.951,101.754 349.600 C 101.861 345.750,102.223 341.070,102.558 339.200 C 103.749 332.552,104.812 327.524,105.168 326.859 C 105.367 326.488,105.814 324.838,106.161 323.192 C 107.493 316.879,112.402 296.671,114.418 289.200 C 115.888 283.754,117.444 278.098,118.049 276.000 C 118.271 275.230,118.604 273.970,118.789 273.200 C 118.974 272.430,119.333 271.170,119.586 270.400 C 120.003 269.134,121.114 265.324,121.978 262.200 C 122.486 260.364,126.353 247.685,127.164 245.200 C 128.793 240.203,129.593 237.644,130.416 234.800 C 130.893 233.150,131.437 231.350,131.625 230.800 C 132.533 228.146,136.721 213.002,137.598 209.200 C 138.453 205.498,140.077 197.626,141.572 189.942 C 143.144 181.860,142.394 177.024,140.076 180.300 " stroke="none" fill="#04e3fc" fill-rule="evenodd"></path><path id="path1" d="M184.000 0.800 C 184.000 1.035,182.600 1.200,180.600 1.200 C 178.600 1.200,177.200 1.365,177.200 1.600 C 177.200 1.837,175.733 2.000,173.600 2.000 C 171.467 2.000,170.000 2.163,170.000 2.400 C 170.000 2.622,168.933 2.800,167.600 2.800 C 166.267 2.800,165.200 2.978,165.200 3.200 C 165.200 3.420,164.300 3.600,163.200 3.600 C 162.100 3.600,161.200 3.780,161.200 4.000 C 161.200 4.220,160.390 4.400,159.400 4.400 C 158.410 4.400,157.600 4.580,157.600 4.800 C 157.600 5.020,156.700 5.200,155.600 5.200 C 154.500 5.200,153.600 5.380,153.600 5.600 C 153.600 5.820,152.880 6.000,152.000 6.000 C 151.120 6.000,150.400 6.180,150.400 6.400 C 150.400 6.620,149.680 6.800,148.800 6.800 C 147.920 6.800,147.200 6.980,147.200 7.200 C 147.200 7.420,146.660 7.600,146.000 7.600 C 145.340 7.600,144.800 7.780,144.800 8.000 C 144.800 8.220,144.170 8.400,143.400 8.400 C 142.630 8.400,142.000 8.564,142.000 8.765 C 142.000 8.965,141.546 9.080,140.990 9.019 C 140.435 8.958,139.884 9.064,139.767 9.254 C 139.649 9.444,139.023 9.600,138.376 9.600 C 137.729 9.600,137.200 9.780,137.200 10.000 C 137.200 10.220,136.660 10.400,136.000 10.400 C 135.340 10.400,134.800 10.580,134.800 10.800 C 134.800 11.020,134.249 11.200,133.576 11.200 C 132.863 11.200,132.456 11.367,132.600 11.600 C 132.740 11.827,132.404 12.000,131.824 12.000 C 131.261 12.000,130.800 12.180,130.800 12.400 C 130.800 12.620,130.260 12.800,129.600 12.800 C 128.940 12.800,128.400 12.980,128.400 13.200 C 128.400 13.420,128.076 13.600,127.680 13.600 C 126.786 13.600,124.807 14.494,124.803 14.900 C 124.801 15.065,124.260 15.200,123.600 15.200 C 122.940 15.200,122.400 15.380,122.400 15.600 C 122.400 15.820,122.040 16.000,121.600 16.000 C 121.160 16.000,120.800 16.180,120.800 16.400 C 120.800 16.620,120.361 16.800,119.824 16.800 C 119.287 16.800,118.736 16.980,118.600 17.200 C 118.464 17.420,118.003 17.600,117.576 17.600 C 117.149 17.600,116.800 17.780,116.800 18.000 C 116.800 18.220,116.440 18.400,116.000 18.400 C 115.560 18.400,115.200 18.580,115.200 18.800 C 115.200 19.020,114.840 19.200,114.400 19.200 C 113.960 19.200,113.600 19.380,113.600 19.600 C 113.600 19.820,113.240 20.000,112.800 20.000 C 112.360 20.000,112.000 20.180,112.000 20.400 C 112.000 20.620,111.640 20.800,111.200 20.800 C 110.760 20.800,110.400 20.980,110.400 21.200 C 110.400 21.420,109.950 21.600,109.400 21.600 C 108.850 21.600,108.400 21.780,108.400 22.000 C 108.400 22.220,108.080 22.400,107.688 22.400 C 107.297 22.400,106.717 22.760,106.400 23.200 C 106.083 23.640,105.503 24.000,105.112 24.000 C 104.720 24.000,104.400 24.180,104.400 24.400 C 104.400 24.620,104.040 24.800,103.600 24.800 C 103.160 24.800,102.800 24.980,102.800 25.200 C 102.800 25.420,102.665 25.564,102.500 25.521 C 101.890 25.360,100.467 26.048,100.252 26.608 C 100.127 26.934,99.761 27.083,99.415 26.950 C 99.077 26.821,98.800 26.914,98.800 27.157 C 98.800 27.401,98.440 27.600,98.000 27.600 C 97.560 27.600,97.200 27.780,97.200 28.000 C 97.200 28.220,96.952 28.400,96.649 28.400 C 96.346 28.400,95.871 28.673,95.594 29.007 C 95.317 29.341,94.486 29.901,93.748 30.251 C 93.011 30.601,92.506 31.048,92.627 31.244 C 92.748 31.440,92.516 31.600,92.112 31.600 C 91.707 31.600,91.117 31.960,90.800 32.400 C 90.483 32.840,89.943 33.200,89.600 33.200 C 89.257 33.200,88.717 33.560,88.400 34.000 C 88.083 34.440,87.543 34.800,87.200 34.800 C 86.857 34.800,86.317 35.160,86.000 35.600 C 85.683 36.040,85.143 36.400,84.800 36.400 C 84.457 36.400,83.917 36.760,83.600 37.200 C 83.283 37.640,82.779 38.000,82.480 38.000 C 82.182 38.000,81.246 38.720,80.400 39.600 C 79.554 40.480,78.714 41.203,78.531 41.206 C 78.349 41.210,77.591 41.750,76.846 42.406 C 76.101 43.063,75.342 43.600,75.159 43.600 C 74.976 43.600,74.197 44.230,73.427 45.000 C 72.657 45.770,71.835 46.400,71.601 46.400 C 71.366 46.400,69.206 48.380,66.800 50.800 C 64.394 53.220,62.285 55.203,62.113 55.206 C 61.941 55.210,60.945 56.092,59.900 57.166 C 58.855 58.241,58.000 59.040,58.000 58.942 C 58.000 58.844,57.550 59.214,57.000 59.764 C 56.450 60.314,56.000 60.962,56.000 61.205 C 56.000 61.448,55.820 61.536,55.600 61.400 C 55.380 61.264,55.200 61.418,55.200 61.743 C 55.200 62.067,53.040 64.523,50.400 67.200 C 47.760 69.877,45.600 72.250,45.600 72.473 C 45.600 72.696,45.066 73.378,44.414 73.987 C 43.762 74.596,43.308 75.175,43.406 75.272 C 43.504 75.370,42.867 76.242,41.992 77.209 C 41.116 78.176,40.400 79.128,40.400 79.324 C 40.400 79.519,39.860 80.183,39.200 80.800 C 38.540 81.417,38.000 82.137,38.000 82.400 C 38.000 82.663,37.460 83.383,36.800 84.000 C 36.140 84.617,35.600 85.369,35.600 85.672 C 35.600 85.975,35.240 86.483,34.800 86.800 C 34.360 87.117,34.000 87.657,34.000 88.000 C 34.000 88.343,33.640 88.883,33.200 89.200 C 32.760 89.517,32.400 90.057,32.400 90.400 C 32.400 90.743,32.040 91.283,31.600 91.600 C 31.160 91.917,30.800 92.324,30.800 92.505 C 30.800 92.686,30.440 93.220,30.000 93.692 C 29.560 94.164,29.200 94.787,29.200 95.075 C 29.200 95.364,29.020 95.600,28.800 95.600 C 28.580 95.600,28.396 95.915,28.391 96.300 C 28.386 96.685,28.030 97.450,27.600 98.000 C 27.170 98.550,26.814 99.225,26.809 99.500 C 26.804 99.775,26.620 100.000,26.400 100.000 C 26.180 100.000,26.037 100.135,26.082 100.300 C 26.127 100.465,25.857 101.176,25.482 101.880 C 25.107 102.584,24.800 103.399,24.800 103.692 C 24.800 103.984,24.440 104.483,24.000 104.800 C 23.560 105.117,23.200 105.697,23.200 106.088 C 23.200 106.480,23.020 106.800,22.800 106.800 C 22.580 106.800,22.400 107.160,22.400 107.600 C 22.400 108.040,22.220 108.400,22.000 108.400 C 21.780 108.400,21.600 108.771,21.600 109.224 C 21.600 109.677,21.420 109.936,21.200 109.800 C 20.980 109.664,20.800 109.923,20.800 110.376 C 20.800 110.829,20.620 111.200,20.400 111.200 C 20.180 111.200,20.000 111.560,20.000 112.000 C 20.000 112.440,19.858 112.800,19.685 112.800 C 19.512 112.800,19.340 113.202,19.303 113.694 C 19.266 114.186,19.048 114.651,18.818 114.727 C 18.588 114.804,18.400 115.302,18.400 115.833 C 18.400 116.365,18.220 116.800,18.000 116.800 C 17.780 116.800,17.600 117.160,17.600 117.600 C 17.600 118.040,17.420 118.400,17.200 118.400 C 16.980 118.400,16.800 118.760,16.800 119.200 C 16.800 119.640,16.620 120.000,16.400 120.000 C 16.180 120.000,16.000 120.360,16.000 120.800 C 16.000 121.240,15.820 121.600,15.600 121.600 C 15.380 121.600,15.200 121.960,15.200 122.400 C 15.200 122.840,15.020 123.200,14.800 123.200 C 14.580 123.200,14.400 123.740,14.400 124.400 C 14.400 125.060,14.220 125.600,14.000 125.600 C 13.780 125.600,13.600 126.050,13.600 126.600 C 13.600 127.150,13.453 127.600,13.272 127.600 C 13.092 127.600,12.700 128.500,12.400 129.600 C 12.100 130.700,11.708 131.600,11.528 131.600 C 11.347 131.600,11.200 132.140,11.200 132.800 C 11.200 133.460,11.020 134.000,10.800 134.000 C 10.580 134.000,10.400 134.450,10.400 135.000 C 10.400 135.550,10.190 136.000,9.933 136.000 C 9.677 136.000,9.580 136.113,9.717 136.251 C 9.855 136.389,9.720 137.096,9.416 137.823 C 9.113 138.549,8.915 139.606,8.977 140.172 C 9.039 140.737,8.935 141.200,8.745 141.200 C 8.555 141.200,8.400 141.650,8.400 142.200 C 8.400 142.750,8.220 143.200,8.000 143.200 C 7.780 143.200,7.600 143.729,7.600 144.376 C 7.600 145.023,7.420 145.664,7.200 145.800 C 6.980 145.936,6.800 146.667,6.800 147.424 C 6.800 148.181,6.620 148.800,6.400 148.800 C 6.180 148.800,6.000 149.340,6.000 150.000 C 6.000 150.660,5.820 151.200,5.600 151.200 C 5.380 151.200,5.200 151.909,5.200 152.776 C 5.200 153.643,5.020 154.464,4.800 154.600 C 4.580 154.736,4.400 155.647,4.400 156.624 C 4.400 157.601,4.220 158.400,4.000 158.400 C 3.780 158.400,3.600 159.199,3.600 160.176 C 3.600 161.153,3.420 162.064,3.200 162.200 C 2.980 162.336,2.800 163.247,2.800 164.224 C 2.800 165.201,2.620 166.000,2.400 166.000 C 2.171 166.000,2.000 167.200,2.000 168.800 C 2.000 170.340,1.833 171.600,1.628 171.600 C 1.424 171.600,1.163 173.175,1.049 175.100 C 0.934 177.025,0.638 181.570,0.390 185.200 C -0.155 193.191,0.147 221.507,0.783 222.143 C 1.013 222.373,1.200 224.054,1.200 225.880 C 1.200 227.827,1.365 229.200,1.600 229.200 C 1.829 229.200,2.000 230.400,2.000 232.000 C 2.000 233.600,2.171 234.800,2.400 234.800 C 2.620 234.800,2.800 235.700,2.800 236.800 C 2.800 237.900,2.980 238.800,3.200 238.800 C 3.420 238.800,3.600 239.610,3.600 240.600 C 3.600 241.590,3.780 242.400,4.000 242.400 C 4.220 242.400,4.400 243.300,4.400 244.400 C 4.400 245.500,4.580 246.400,4.800 246.400 C 5.020 246.400,5.200 247.120,5.200 248.000 C 5.200 248.880,5.380 249.600,5.600 249.600 C 5.820 249.600,6.000 250.320,6.000 251.200 C 6.000 252.080,6.180 252.800,6.400 252.800 C 6.620 252.800,6.800 253.340,6.800 254.000 C 6.800 254.660,6.980 255.200,7.200 255.200 C 7.420 255.200,7.600 255.740,7.600 256.400 C 7.600 257.060,7.761 257.600,7.958 257.600 C 8.155 257.600,8.420 258.365,8.548 259.300 C 8.886 261.779,8.969 262.117,9.456 263.000 C 9.698 263.440,9.845 264.115,9.783 264.500 C 9.721 264.885,9.835 265.200,10.035 265.200 C 10.236 265.200,10.400 265.562,10.400 266.005 C 10.400 266.448,10.580 267.168,10.800 267.605 C 11.020 268.042,11.380 268.758,11.600 269.195 C 11.820 269.632,12.000 270.352,12.000 270.795 C 12.000 271.238,12.180 271.600,12.400 271.600 C 12.620 271.600,12.800 271.924,12.800 272.320 C 12.800 273.214,13.694 275.193,14.100 275.197 C 14.265 275.199,14.400 275.740,14.400 276.400 C 14.400 277.060,14.536 277.600,14.702 277.600 C 14.987 277.600,15.170 278.025,16.467 281.700 C 16.758 282.525,17.132 283.200,17.298 283.200 C 17.464 283.200,17.600 283.560,17.600 284.000 C 17.600 284.440,17.780 284.800,18.000 284.800 C 18.220 284.800,18.400 285.160,18.400 285.600 C 18.400 286.040,18.580 286.400,18.800 286.400 C 19.020 286.400,19.200 286.760,19.200 287.200 C 19.200 287.640,19.380 288.000,19.600 288.000 C 19.820 288.000,20.000 288.360,20.000 288.800 C 20.000 289.240,20.180 289.600,20.400 289.600 C 20.620 289.600,20.800 289.960,20.800 290.400 C 20.800 290.840,20.980 291.200,21.200 291.200 C 21.420 291.200,21.600 291.470,21.600 291.800 C 21.600 292.130,21.780 292.400,22.000 292.400 C 22.220 292.400,22.400 292.760,22.400 293.200 C 22.400 293.640,22.580 294.000,22.800 294.000 C 23.020 294.000,23.200 294.360,23.200 294.800 C 23.200 295.240,23.380 295.600,23.600 295.600 C 23.820 295.600,24.000 295.960,24.000 296.400 C 24.000 296.840,24.180 297.200,24.400 297.200 C 24.620 297.200,24.800 297.501,24.800 297.869 C 24.800 298.236,25.056 298.821,25.368 299.169 C 25.681 299.516,25.996 300.066,26.068 300.390 C 26.141 300.715,26.427 301.225,26.704 301.523 C 26.981 301.821,27.115 302.215,27.001 302.398 C 26.888 302.582,26.931 302.792,27.098 302.866 C 27.264 302.940,27.833 303.855,28.363 304.900 C 28.892 305.945,29.477 306.800,29.663 306.800 C 29.848 306.800,30.000 307.068,30.000 307.397 C 30.000 307.725,30.360 308.218,30.800 308.493 C 31.240 308.768,31.600 309.269,31.600 309.608 C 31.600 309.946,31.960 310.483,32.400 310.800 C 32.840 311.117,33.200 311.657,33.200 312.000 C 33.200 312.343,33.560 312.883,34.000 313.200 C 34.440 313.517,34.800 314.015,34.800 314.306 C 34.800 314.598,35.250 315.286,35.800 315.836 C 36.350 316.386,36.800 317.000,36.800 317.200 C 36.800 317.400,37.250 318.014,37.800 318.564 C 38.350 319.114,38.800 319.766,38.800 320.013 C 38.800 320.260,39.520 321.154,40.400 322.000 C 41.280 322.846,42.000 323.709,42.000 323.918 C 42.000 324.128,42.630 324.987,43.400 325.828 C 44.170 326.669,44.800 327.515,44.800 327.710 C 44.800 327.904,45.475 328.728,46.300 329.541 C 47.125 330.353,47.848 331.247,47.906 331.527 C 47.985 331.908,54.245 338.284,58.104 341.914 C 58.271 342.071,60.752 344.585,63.616 347.500 C 66.481 350.415,69.013 352.800,69.244 352.800 C 69.474 352.800,70.354 353.520,71.200 354.400 C 72.046 355.280,72.937 356.000,73.182 356.000 C 73.427 356.000,74.257 356.630,75.027 357.400 C 75.797 358.170,76.615 358.800,76.845 358.800 C 77.075 358.800,77.954 359.520,78.800 360.400 C 79.646 361.280,80.582 362.000,80.880 362.000 C 81.179 362.000,81.683 362.360,82.000 362.800 C 82.317 363.240,82.857 363.600,83.200 363.600 C 83.543 363.600,84.083 363.960,84.400 364.400 C 84.717 364.840,85.257 365.200,85.600 365.200 C 85.943 365.200,86.483 365.560,86.800 366.000 C 87.117 366.440,87.580 366.800,87.829 366.800 C 88.078 366.800,88.846 367.340,89.537 368.000 C 90.228 368.660,91.025 369.200,91.308 369.200 C 91.591 369.200,92.083 369.560,92.400 370.000 C 92.717 370.440,93.207 370.800,93.488 370.800 C 93.770 370.800,94.000 370.980,94.000 371.200 C 94.000 371.420,94.338 371.600,94.751 371.600 C 95.164 371.600,95.730 371.875,96.009 372.210 C 96.553 372.866,101.339 375.200,102.140 375.200 C 102.406 375.200,102.883 375.560,103.200 376.000 C 103.517 376.440,104.097 376.800,104.488 376.800 C 104.880 376.800,105.200 376.980,105.200 377.200 C 105.200 377.420,105.560 377.600,106.000 377.600 C 106.440 377.600,106.800 377.780,106.800 378.000 C 106.800 378.220,107.160 378.400,107.600 378.400 C 108.040 378.400,108.400 378.580,108.400 378.800 C 108.400 379.020,108.771 379.200,109.224 379.200 C 109.677 379.200,109.936 379.380,109.800 379.600 C 109.664 379.820,109.923 380.000,110.376 380.000 C 110.829 380.000,111.200 380.180,111.200 380.400 C 111.200 380.620,111.560 380.800,112.000 380.800 C 112.440 380.800,112.800 380.980,112.800 381.200 C 112.800 381.420,113.160 381.600,113.600 381.600 C 114.040 381.600,114.400 381.780,114.400 382.000 C 114.400 382.220,114.760 382.400,115.200 382.400 C 115.640 382.400,116.000 382.580,116.000 382.800 C 116.000 383.020,116.540 383.200,117.200 383.200 C 117.860 383.200,118.400 383.380,118.400 383.600 C 118.400 383.820,118.760 384.000,119.200 384.000 C 119.640 384.000,120.000 384.180,120.000 384.400 C 120.000 384.620,120.360 384.800,120.800 384.800 C 121.240 384.800,121.600 384.980,121.600 385.200 C 121.600 385.420,121.960 385.600,122.400 385.600 C 122.840 385.600,123.200 385.780,123.200 386.000 C 123.200 386.220,123.740 386.400,124.400 386.400 C 125.060 386.400,125.600 386.580,125.600 386.800 C 125.600 387.020,126.050 387.200,126.600 387.200 C 127.150 387.200,127.600 387.380,127.600 387.600 C 127.600 387.820,127.949 388.000,128.376 388.000 C 128.803 388.000,129.264 388.180,129.400 388.400 C 129.536 388.620,130.087 388.800,130.624 388.800 C 131.161 388.800,131.600 388.980,131.600 389.200 C 131.600 389.420,132.140 389.600,132.800 389.600 C 133.460 389.600,134.000 389.780,134.000 390.000 C 134.000 390.220,134.324 390.400,134.720 390.400 C 135.116 390.400,135.619 390.579,135.838 390.798 C 136.056 391.016,137.352 391.312,138.718 391.454 C 140.083 391.597,141.200 391.868,141.200 392.057 C 141.200 392.246,141.740 392.400,142.400 392.400 C 143.060 392.400,143.600 392.580,143.600 392.800 C 143.600 393.020,144.230 393.200,145.000 393.200 C 145.770 393.200,146.400 393.380,146.400 393.600 C 146.400 393.820,147.120 394.000,148.000 394.000 C 148.880 394.000,149.600 394.180,149.600 394.400 C 149.600 394.620,150.140 394.800,150.800 394.800 C 151.460 394.800,152.000 394.980,152.000 395.200 C 152.000 395.420,152.900 395.600,154.000 395.600 C 155.100 395.600,156.000 395.780,156.000 396.000 C 156.000 396.220,156.810 396.400,157.800 396.400 C 158.790 396.400,159.600 396.580,159.600 396.800 C 159.600 397.020,160.309 397.200,161.176 397.200 C 162.043 397.200,162.864 397.380,163.000 397.600 C 163.136 397.820,164.047 398.000,165.024 398.000 C 166.001 398.000,166.800 398.180,166.800 398.400 C 166.800 398.633,168.122 398.800,169.967 398.800 C 172.144 398.800,173.185 398.956,173.300 399.300 C 173.431 399.693,179.129 399.800,200.000 399.800 C 220.871 399.800,226.569 399.693,226.700 399.300 C 226.815 398.956,227.856 398.800,230.033 398.800 C 231.878 398.800,233.200 398.633,233.200 398.400 C 233.200 398.180,233.999 398.000,234.976 398.000 C 235.953 398.000,236.864 397.820,237.000 397.600 C 237.136 397.380,237.957 397.200,238.824 397.200 C 239.691 397.200,240.400 397.020,240.400 396.800 C 240.400 396.580,241.210 396.400,242.200 396.400 C 243.190 396.400,244.000 396.220,244.000 396.000 C 244.000 395.780,244.900 395.600,246.000 395.600 C 247.100 395.600,248.000 395.420,248.000 395.200 C 248.000 394.980,248.540 394.800,249.200 394.800 C 249.860 394.800,250.400 394.620,250.400 394.400 C 250.400 394.180,251.120 394.000,252.000 394.000 C 252.880 394.000,253.600 393.820,253.600 393.600 C 253.600 393.380,254.140 393.200,254.800 393.200 C 255.460 393.200,256.000 393.020,256.000 392.800 C 256.000 392.580,256.630 392.400,257.400 392.400 C 258.170 392.400,258.800 392.246,258.800 392.057 C 258.800 391.868,259.917 391.597,261.282 391.454 C 262.648 391.312,263.944 391.016,264.162 390.798 C 264.381 390.579,264.884 390.400,265.280 390.400 C 265.676 390.400,266.000 390.220,266.000 390.000 C 266.000 389.780,266.540 389.600,267.200 389.600 C 267.860 389.600,268.400 389.420,268.400 389.200 C 268.400 388.980,268.839 388.800,269.376 388.800 C 269.913 388.800,270.464 388.620,270.600 388.400 C 270.736 388.180,271.197 388.000,271.624 388.000 C 272.051 388.000,272.400 387.820,272.400 387.600 C 272.400 387.380,272.839 387.200,273.376 387.200 C 273.913 387.200,274.464 387.020,274.600 386.800 C 274.736 386.580,275.287 386.400,275.824 386.400 C 276.361 386.400,276.800 386.220,276.800 386.000 C 276.800 385.780,277.160 385.600,277.600 385.600 C 278.040 385.600,278.400 385.420,278.400 385.200 C 278.400 384.980,278.760 384.800,279.200 384.800 C 279.640 384.800,280.000 384.620,280.000 384.400 C 280.000 384.180,280.360 384.000,280.800 384.000 C 281.240 384.000,281.600 383.820,281.600 383.600 C 281.600 383.380,282.140 383.200,282.800 383.200 C 283.460 383.200,284.000 383.020,284.000 382.800 C 284.000 382.580,284.360 382.400,284.800 382.400 C 285.240 382.400,285.600 382.220,285.600 382.000 C 285.600 381.780,285.960 381.600,286.400 381.600 C 286.840 381.600,287.200 381.420,287.200 381.200 C 287.200 380.980,287.560 380.800,288.000 380.800 C 288.440 380.800,288.800 380.620,288.800 380.400 C 288.800 380.180,289.160 380.000,289.600 380.000 C 290.040 380.000,290.400 379.820,290.400 379.600 C 290.400 379.380,290.670 379.200,291.000 379.200 C 291.330 379.200,291.600 379.020,291.600 378.800 C 291.600 378.580,291.960 378.400,292.400 378.400 C 292.840 378.400,293.200 378.220,293.200 378.000 C 293.200 377.780,293.560 377.600,294.000 377.600 C 294.440 377.600,294.800 377.420,294.800 377.200 C 294.800 376.980,295.120 376.800,295.512 376.800 C 295.903 376.800,296.483 376.440,296.800 376.000 C 297.117 375.560,297.638 375.200,297.958 375.200 C 298.793 375.200,304.400 372.373,304.400 371.952 C 304.400 371.759,304.760 371.600,305.200 371.600 C 305.640 371.600,306.000 371.420,306.000 371.200 C 306.000 370.980,306.270 370.800,306.600 370.800 C 306.930 370.800,307.200 370.650,307.200 370.468 C 307.200 370.285,307.692 369.880,308.293 369.568 C 308.894 369.255,309.911 368.505,310.552 367.900 C 311.194 367.295,311.922 366.800,312.171 366.800 C 312.420 366.800,312.883 366.440,313.200 366.000 C 313.517 365.560,314.057 365.200,314.400 365.200 C 314.743 365.200,315.283 364.840,315.600 364.400 C 315.917 363.960,316.457 363.600,316.800 363.600 C 317.143 363.600,317.683 363.240,318.000 362.800 C 318.317 362.360,318.821 362.000,319.120 362.000 C 319.418 362.000,320.354 361.280,321.200 360.400 C 322.046 359.520,322.946 358.800,323.202 358.800 C 323.458 358.800,324.279 358.170,325.026 357.400 C 325.774 356.630,326.583 356.000,326.824 356.000 C 327.065 356.000,327.954 355.280,328.800 354.400 C 329.646 353.520,330.536 352.800,330.780 352.800 C 331.023 352.800,333.563 350.415,336.425 347.500 C 342.692 341.117,341.253 342.556,347.100 336.826 C 349.795 334.185,352.000 331.860,352.000 331.660 C 352.000 331.460,352.720 330.555,353.600 329.648 C 354.480 328.741,355.200 327.837,355.200 327.640 C 355.200 327.442,355.875 326.602,356.700 325.773 C 357.525 324.945,358.160 324.133,358.112 323.969 C 358.064 323.806,358.739 322.935,359.612 322.035 C 360.485 321.135,361.200 320.218,361.200 319.996 C 361.200 319.774,361.740 319.028,362.400 318.337 C 363.060 317.646,363.600 316.878,363.600 316.629 C 363.600 316.380,363.960 315.917,364.400 315.600 C 364.840 315.283,365.200 314.743,365.200 314.400 C 365.200 314.057,365.560 313.517,366.000 313.200 C 366.440 312.883,366.800 312.343,366.800 312.000 C 366.800 311.657,367.160 311.117,367.600 310.800 C 368.040 310.483,368.400 309.946,368.400 309.608 C 368.400 309.269,368.760 308.768,369.200 308.493 C 369.640 308.218,370.000 307.725,370.000 307.397 C 370.000 307.068,370.152 306.800,370.337 306.800 C 370.523 306.800,371.108 305.945,371.637 304.900 C 372.167 303.855,372.735 302.940,372.900 302.867 C 373.065 302.793,373.200 302.388,373.200 301.967 C 373.200 301.545,373.380 301.200,373.600 301.200 C 373.820 301.200,374.000 300.917,374.000 300.571 C 374.000 300.226,374.270 299.673,374.600 299.343 C 374.930 299.013,375.200 298.396,375.200 297.971 C 375.200 297.547,375.380 297.200,375.600 297.200 C 375.820 297.200,376.000 296.840,376.000 296.400 C 376.000 295.960,376.180 295.600,376.400 295.600 C 376.620 295.600,376.800 295.240,376.800 294.800 C 376.800 294.360,376.980 294.000,377.200 294.000 C 377.420 294.000,377.600 293.640,377.600 293.200 C 377.600 292.760,377.780 292.400,378.000 292.400 C 378.220 292.400,378.400 292.130,378.400 291.800 C 378.400 291.470,378.580 291.200,378.800 291.200 C 379.020 291.200,379.200 290.840,379.200 290.400 C 379.200 289.960,379.380 289.600,379.600 289.600 C 379.820 289.600,380.000 289.240,380.000 288.800 C 380.000 288.360,380.180 288.000,380.400 288.000 C 380.620 288.000,380.800 287.640,380.800 287.200 C 380.800 286.760,380.980 286.400,381.200 286.400 C 381.420 286.400,381.600 286.040,381.600 285.600 C 381.600 285.160,381.780 284.800,382.000 284.800 C 382.220 284.800,382.400 284.440,382.400 284.000 C 382.400 283.560,382.580 283.200,382.800 283.200 C 383.020 283.200,383.200 282.840,383.200 282.400 C 383.200 281.960,383.380 281.600,383.600 281.600 C 383.820 281.600,384.000 281.251,384.000 280.824 C 384.000 280.397,384.180 279.936,384.400 279.800 C 384.620 279.664,384.800 279.113,384.800 278.576 C 384.800 278.039,384.980 277.600,385.200 277.600 C 385.420 277.600,385.600 277.060,385.600 276.400 C 385.600 275.740,385.735 275.199,385.900 275.197 C 386.306 275.193,387.200 273.214,387.200 272.320 C 387.200 271.924,387.380 271.600,387.600 271.600 C 387.820 271.600,388.000 271.161,388.000 270.624 C 388.000 270.087,388.180 269.536,388.400 269.400 C 388.620 269.264,388.800 268.803,388.800 268.376 C 388.800 267.949,388.980 267.600,389.200 267.600 C 389.420 267.600,389.600 267.060,389.600 266.400 C 389.600 265.740,389.780 265.200,390.000 265.200 C 390.220 265.200,390.400 264.660,390.400 264.000 C 390.400 263.340,390.562 262.800,390.761 262.800 C 390.959 262.800,391.247 261.720,391.400 260.399 C 391.553 259.079,391.841 257.898,392.039 257.776 C 392.238 257.653,392.400 257.023,392.400 256.376 C 392.400 255.729,392.580 255.200,392.800 255.200 C 393.020 255.200,393.200 254.660,393.200 254.000 C 393.200 253.340,393.380 252.800,393.600 252.800 C 393.820 252.800,394.000 252.080,394.000 251.200 C 394.000 250.320,394.180 249.600,394.400 249.600 C 394.620 249.600,394.800 248.880,394.800 248.000 C 394.800 247.120,394.980 246.400,395.200 246.400 C 395.420 246.400,395.600 245.500,395.600 244.400 C 395.600 243.300,395.780 242.400,396.000 242.400 C 396.220 242.400,396.400 241.590,396.400 240.600 C 396.400 239.610,396.580 238.800,396.800 238.800 C 397.020 238.800,397.200 237.900,397.200 236.800 C 397.200 235.700,397.380 234.800,397.600 234.800 C 397.829 234.800,398.000 233.600,398.000 232.000 C 398.000 230.400,398.171 229.200,398.400 229.200 C 398.635 229.200,398.800 227.827,398.800 225.880 C 398.800 223.757,398.980 222.380,399.300 222.060 C 399.687 221.673,399.800 216.795,399.800 200.400 C 399.800 184.005,399.687 179.127,399.300 178.740 C 398.980 178.420,398.800 177.043,398.800 174.920 C 398.800 172.973,398.635 171.600,398.400 171.600 C 398.171 171.600,398.000 170.400,398.000 168.800 C 398.000 167.200,397.829 166.000,397.600 166.000 C 397.380 166.000,397.200 165.201,397.200 164.224 C 397.200 163.247,397.020 162.336,396.800 162.200 C 396.580 162.064,396.400 161.153,396.400 160.176 C 396.400 159.199,396.220 158.400,396.000 158.400 C 395.780 158.400,395.600 157.601,395.600 156.624 C 395.600 155.647,395.420 154.736,395.200 154.600 C 394.980 154.464,394.800 153.643,394.800 152.776 C 394.800 151.909,394.620 151.200,394.400 151.200 C 394.180 151.200,394.000 150.660,394.000 150.000 C 394.000 149.340,393.820 148.800,393.600 148.800 C 393.380 148.800,393.200 148.181,393.200 147.424 C 393.200 146.667,393.020 145.936,392.800 145.800 C 392.580 145.664,392.400 145.013,392.400 144.353 C 392.400 143.693,392.235 143.255,392.032 143.380 C 391.830 143.505,391.539 142.433,391.385 140.998 C 391.231 139.563,390.947 138.291,390.753 138.171 C 390.559 138.051,390.400 137.524,390.400 137.000 C 390.400 136.476,390.220 135.936,390.000 135.800 C 389.780 135.664,389.600 135.203,389.600 134.776 C 389.600 134.349,389.420 134.000,389.200 134.000 C 388.980 134.000,388.800 133.460,388.800 132.800 C 388.800 132.140,388.620 131.600,388.400 131.600 C 388.180 131.600,388.000 131.161,388.000 130.624 C 388.000 130.087,387.820 129.536,387.600 129.400 C 387.380 129.264,387.200 128.803,387.200 128.376 C 387.200 127.949,387.020 127.600,386.800 127.600 C 386.580 127.600,386.400 127.150,386.400 126.600 C 386.400 126.050,386.220 125.600,386.000 125.600 C 385.780 125.600,385.600 125.060,385.600 124.400 C 385.600 123.740,385.420 123.200,385.200 123.200 C 384.980 123.200,384.800 122.840,384.800 122.400 C 384.800 121.960,384.620 121.600,384.400 121.600 C 384.180 121.600,384.000 121.240,384.000 120.800 C 384.000 120.360,383.820 120.000,383.600 120.000 C 383.380 120.000,383.200 119.640,383.200 119.200 C 383.200 118.760,383.020 118.400,382.800 118.400 C 382.580 118.400,382.400 118.040,382.400 117.600 C 382.400 117.160,382.220 116.800,382.000 116.800 C 381.780 116.800,381.600 116.350,381.600 115.800 C 381.600 115.250,381.420 114.800,381.200 114.800 C 380.980 114.800,380.800 114.350,380.800 113.800 C 380.800 113.250,380.620 112.800,380.400 112.800 C 380.180 112.800,380.000 112.440,380.000 112.000 C 380.000 111.560,379.820 111.200,379.600 111.200 C 379.380 111.200,379.200 110.829,379.200 110.376 C 379.200 109.923,379.020 109.664,378.800 109.800 C 378.580 109.936,378.400 109.677,378.400 109.224 C 378.400 108.771,378.220 108.400,378.000 108.400 C 377.780 108.400,377.600 108.040,377.600 107.600 C 377.600 107.160,377.420 106.800,377.200 106.800 C 376.980 106.800,376.800 106.480,376.800 106.088 C 376.800 105.697,376.440 105.117,376.000 104.800 C 375.560 104.483,375.200 103.975,375.200 103.672 C 375.200 103.069,373.994 100.321,373.589 100.000 C 373.450 99.890,373.081 99.215,372.770 98.500 C 372.459 97.785,372.069 97.200,371.902 97.200 C 371.736 97.200,371.600 96.840,371.600 96.400 C 371.600 95.960,371.420 95.600,371.200 95.600 C 370.980 95.600,370.800 95.364,370.800 95.075 C 370.800 94.787,370.440 94.164,370.000 93.692 C 369.560 93.220,369.200 92.686,369.200 92.505 C 369.200 92.324,368.840 91.917,368.400 91.600 C 367.960 91.283,367.600 90.743,367.600 90.400 C 367.600 90.057,367.240 89.517,366.800 89.200 C 366.360 88.883,366.000 88.343,366.000 88.000 C 366.000 87.657,365.640 87.117,365.200 86.800 C 364.760 86.483,364.400 85.975,364.400 85.672 C 364.400 85.369,363.860 84.617,363.200 84.000 C 362.540 83.383,362.000 82.663,362.000 82.400 C 362.000 82.137,361.460 81.417,360.800 80.800 C 360.140 80.183,359.600 79.514,359.600 79.312 C 359.600 79.109,358.970 78.208,358.200 77.308 C 357.430 76.409,356.800 75.549,356.800 75.397 C 356.800 75.245,356.260 74.617,355.600 74.000 C 354.940 73.383,354.400 72.691,354.400 72.460 C 354.400 72.230,352.460 70.091,350.089 67.707 C 347.718 65.324,345.339 62.749,344.802 61.987 C 343.668 60.375,342.956 59.596,342.748 59.739 C 342.666 59.795,342.201 59.426,341.714 58.920 C 341.227 58.414,340.920 58.000,341.032 58.000 C 341.145 58.000,340.786 57.550,340.236 57.000 C 339.686 56.450,339.048 56.000,338.818 56.000 C 338.588 56.000,338.400 55.820,338.400 55.600 C 338.400 55.380,338.219 55.200,337.998 55.200 C 337.777 55.200,335.610 53.220,333.182 50.800 C 330.755 48.380,328.589 46.400,328.371 46.400 C 328.152 46.400,327.343 45.770,326.573 45.000 C 325.803 44.230,325.044 43.599,324.887 43.598 C 324.729 43.597,324.025 43.057,323.322 42.398 C 322.619 41.739,321.840 41.200,321.590 41.200 C 321.341 41.200,320.446 40.480,319.600 39.600 C 318.754 38.720,317.818 38.000,317.520 38.000 C 317.221 38.000,316.717 37.640,316.400 37.200 C 316.083 36.760,315.543 36.400,315.200 36.400 C 314.857 36.400,314.317 36.040,314.000 35.600 C 313.683 35.160,313.143 34.800,312.800 34.800 C 312.457 34.800,311.917 34.440,311.600 34.000 C 311.283 33.560,310.743 33.200,310.400 33.200 C 310.057 33.200,309.517 32.840,309.200 32.400 C 308.883 31.960,308.393 31.600,308.112 31.600 C 307.830 31.600,307.600 31.450,307.600 31.268 C 307.600 31.085,307.105 30.680,306.500 30.368 C 305.895 30.055,305.051 29.485,304.625 29.100 C 304.198 28.715,303.613 28.400,303.325 28.400 C 303.036 28.400,302.800 28.220,302.800 28.000 C 302.800 27.780,302.440 27.600,302.000 27.600 C 301.560 27.600,301.200 27.401,301.200 27.157 C 301.200 26.914,300.923 26.821,300.585 26.950 C 300.239 27.083,299.873 26.934,299.748 26.608 C 299.533 26.048,298.110 25.360,297.500 25.521 C 297.335 25.564,297.200 25.420,297.200 25.200 C 297.200 24.980,296.840 24.800,296.400 24.800 C 295.960 24.800,295.600 24.620,295.600 24.400 C 295.600 24.180,295.280 24.000,294.888 24.000 C 294.497 24.000,293.917 23.640,293.600 23.200 C 293.283 22.760,292.703 22.400,292.312 22.400 C 291.920 22.400,291.600 22.220,291.600 22.000 C 291.600 21.780,291.150 21.600,290.600 21.600 C 290.050 21.600,289.600 21.420,289.600 21.200 C 289.600 20.980,289.240 20.800,288.800 20.800 C 288.360 20.800,288.000 20.620,288.000 20.400 C 288.000 20.180,287.640 20.000,287.200 20.000 C 286.760 20.000,286.400 19.820,286.400 19.600 C 286.400 19.380,286.040 19.200,285.600 19.200 C 285.160 19.200,284.800 19.020,284.800 18.800 C 284.800 18.580,284.440 18.400,284.000 18.400 C 283.560 18.400,283.200 18.220,283.200 18.000 C 283.200 17.780,282.851 17.600,282.424 17.600 C 281.997 17.600,281.536 17.420,281.400 17.200 C 281.264 16.980,280.713 16.800,280.176 16.800 C 279.639 16.800,279.200 16.620,279.200 16.400 C 279.200 16.180,278.840 16.000,278.400 16.000 C 277.960 16.000,277.600 15.820,277.600 15.600 C 277.600 15.380,277.060 15.200,276.400 15.200 C 275.740 15.200,275.199 15.065,275.197 14.900 C 275.193 14.494,273.214 13.600,272.320 13.600 C 271.924 13.600,271.600 13.420,271.600 13.200 C 271.600 12.980,271.060 12.800,270.400 12.800 C 269.740 12.800,269.200 12.620,269.200 12.400 C 269.200 12.180,268.840 12.000,268.400 12.000 C 267.960 12.000,267.600 11.820,267.600 11.600 C 267.600 11.380,267.060 11.200,266.400 11.200 C 265.740 11.200,265.200 11.020,265.200 10.800 C 265.200 10.580,264.660 10.400,264.000 10.400 C 263.340 10.400,262.800 10.259,262.800 10.087 C 262.800 9.915,262.323 9.735,261.740 9.687 C 261.158 9.639,260.483 9.454,260.240 9.276 C 259.998 9.099,259.395 8.984,258.900 9.022 C 258.405 9.060,258.000 8.935,258.000 8.745 C 258.000 8.555,257.370 8.400,256.600 8.400 C 255.830 8.400,255.200 8.220,255.200 8.000 C 255.200 7.780,254.660 7.600,254.000 7.600 C 253.340 7.600,252.800 7.420,252.800 7.200 C 252.800 6.980,252.080 6.800,251.200 6.800 C 250.320 6.800,249.600 6.620,249.600 6.400 C 249.600 6.180,248.880 6.000,248.000 6.000 C 247.120 6.000,246.400 5.820,246.400 5.600 C 246.400 5.380,245.500 5.200,244.400 5.200 C 243.300 5.200,242.400 5.020,242.400 4.800 C 242.400 4.580,241.590 4.400,240.600 4.400 C 239.610 4.400,238.800 4.220,238.800 4.000 C 238.800 3.780,237.900 3.600,236.800 3.600 C 235.700 3.600,234.800 3.420,234.800 3.200 C 234.800 2.978,233.733 2.800,232.400 2.800 C 231.067 2.800,230.000 2.622,230.000 2.400 C 230.000 2.165,228.608 2.000,226.624 2.000 C 224.767 2.000,223.136 1.820,223.000 1.600 C 222.864 1.380,221.233 1.200,219.376 1.200 C 217.392 1.200,216.000 1.035,216.000 0.800 C 216.000 0.540,210.400 0.400,200.000 0.400 C 189.600 0.400,184.000 0.540,184.000 0.800 M297.277 43.070 C 297.684 43.438,298.441 45.193,298.961 46.970 C 299.856 50.035,300.141 51.300,301.226 57.050 C 301.677 59.442,301.517 71.486,300.961 76.913 L 300.725 79.225 302.421 80.713 C 303.355 81.531,304.315 82.200,304.556 82.200 C 305.094 82.200,306.203 69.637,306.569 59.400 C 306.911 49.852,307.094 48.400,307.955 48.400 C 308.468 48.400,308.759 49.013,309.142 50.900 C 309.421 52.275,309.805 54.120,309.994 55.000 C 310.184 55.880,310.537 57.904,310.779 59.498 C 311.020 61.092,311.396 63.522,311.613 64.898 C 312.301 69.259,313.195 81.224,313.198 86.096 L 313.200 90.792 317.500 95.529 C 319.865 98.135,322.970 101.832,324.400 103.746 C 325.830 105.660,327.900 108.376,329.000 109.781 C 334.383 116.657,343.731 134.154,347.175 143.800 C 347.882 145.780,348.738 148.120,349.077 149.000 C 356.242 167.575,359.546 197.406,356.808 218.800 C 351.498 260.308,333.816 292.783,300.610 322.017 C 297.475 324.777,288.518 331.180,282.400 335.035 C 276.826 338.547,273.721 340.177,264.637 344.360 L 261.873 345.633 262.098 355.116 C 262.332 364.962,262.289 365.600,261.394 365.600 C 260.240 365.600,259.348 363.705,255.973 354.083 C 255.487 352.699,254.603 351.045,254.007 350.408 L 252.925 349.249 249.108 350.508 C 245.387 351.734,245.305 351.788,245.854 352.627 C 246.164 353.100,246.298 353.799,246.152 354.181 C 245.872 354.912,245.831 354.910,241.762 353.983 C 239.659 353.504,238.958 353.599,228.600 355.777 C 213.751 358.900,186.435 358.904,171.400 355.785 C 165.350 354.530,161.338 353.615,160.000 353.184 C 159.230 352.936,158.060 352.579,157.400 352.389 C 154.353 351.515,153.302 351.219,152.000 350.865 C 146.386 349.339,127.754 341.185,122.259 337.849 C 118.841 335.774,118.621 335.777,117.995 337.914 C 116.096 344.397,112.840 358.193,112.197 362.481 C 111.885 364.564,110.761 366.224,109.890 365.890 C 107.895 365.124,107.388 344.387,109.040 331.176 C 109.428 328.077,105.634 326.017,105.031 329.000 C 102.729 340.402,102.374 343.047,102.061 351.122 C 101.783 358.287,101.600 359.161,100.374 359.194 C 99.836 359.208,96.407 352.306,95.806 350.000 C 95.663 349.450,95.365 348.370,95.143 347.600 C 93.729 342.690,92.802 333.346,92.801 323.996 L 92.800 316.193 89.623 313.096 C 87.875 311.393,86.363 310.000,86.263 310.000 C 86.069 310.000,85.421 312.743,84.989 315.393 C 84.055 321.118,81.246 316.154,81.183 308.669 C 81.151 304.948,80.616 303.254,78.906 301.463 C 68.976 291.062,54.101 264.273,49.997 249.400 C 49.815 248.740,48.947 245.735,48.068 242.723 C 40.352 216.278,40.355 185.944,48.075 158.400 C 49.666 152.723,49.844 152.176,52.065 146.164 C 53.129 143.284,54.000 140.826,54.000 140.701 C 54.000 140.395,56.993 134.021,59.728 128.503 C 67.509 112.804,80.875 95.805,96.607 81.600 C 100.684 77.919,111.129 69.990,114.639 67.912 C 115.938 67.144,118.530 65.563,120.400 64.399 C 123.937 62.198,137.998 55.241,140.923 54.245 C 141.845 53.931,144.040 53.097,145.800 52.391 C 150.003 50.705,149.901 50.736,159.400 48.183 C 185.246 41.236,214.813 41.165,240.000 47.991 C 241.650 48.438,244.440 49.185,246.200 49.650 C 247.960 50.115,251.200 51.211,253.400 52.086 C 255.600 52.960,258.147 53.929,259.059 54.240 C 264.876 56.218,284.553 66.788,289.258 70.462 C 291.558 72.258,291.522 72.299,292.197 67.200 C 293.035 60.882,293.573 55.960,294.209 48.800 C 294.739 42.830,295.481 41.445,297.277 43.070 " stroke="none" fill="#1b74d4" fill-rule="evenodd"></path><path id="path2" d="M295.444 43.013 C 294.791 43.667,294.576 44.673,294.209 48.800 C 293.573 55.960,293.035 60.882,292.197 67.200 C 291.522 72.299,291.558 72.258,289.258 70.462 C 284.553 66.788,264.876 56.218,259.059 54.240 C 258.147 53.929,255.600 52.960,253.400 52.086 C 251.200 51.211,247.960 50.115,246.200 49.650 C 244.440 49.185,241.650 48.438,240.000 47.991 C 214.813 41.165,185.246 41.236,159.400 48.183 C 149.901 50.736,150.003 50.705,145.800 52.391 C 144.040 53.097,141.845 53.931,140.923 54.245 C 137.998 55.241,123.937 62.198,120.400 64.399 C 118.530 65.563,115.938 67.144,114.639 67.912 C 111.129 69.990,100.684 77.919,96.607 81.600 C 80.875 95.805,67.509 112.804,59.728 128.503 C 56.993 134.021,54.000 140.395,54.000 140.701 C 54.000 140.826,53.129 143.284,52.065 146.164 C 40.547 177.340,39.111 212.022,48.068 242.723 C 48.947 245.735,49.815 248.740,49.997 249.400 C 54.101 264.273,68.976 291.062,78.906 301.463 C 80.616 303.254,81.151 304.948,81.183 308.669 C 81.246 316.154,84.055 321.118,84.989 315.393 C 85.421 312.743,86.069 310.000,86.263 310.000 C 86.363 310.000,87.875 311.393,89.623 313.096 L 92.800 316.193 92.801 323.996 C 92.802 333.346,93.729 342.690,95.143 347.600 C 95.365 348.370,95.663 349.450,95.806 350.000 C 96.407 352.306,99.836 359.208,100.374 359.194 C 101.600 359.161,101.783 358.287,102.061 351.122 C 102.374 343.047,102.729 340.402,105.031 329.000 C 105.634 326.017,109.428 328.077,109.040 331.176 C 107.852 340.675,107.761 359.470,108.883 363.795 C 109.764 367.196,111.675 366.249,112.169 362.167 C 112.335 360.794,112.293 360.441,112.031 361.000 C 111.825 361.440,111.644 362.211,111.628 362.714 C 111.598 363.688,110.517 365.600,109.996 365.600 C 108.613 365.600,107.987 340.605,109.194 333.600 C 109.403 332.390,109.771 329.870,110.012 328.000 C 110.520 324.055,111.846 318.198,114.403 308.600 C 115.827 303.255,116.641 300.476,117.976 296.400 C 118.372 295.190,118.975 293.300,119.315 292.200 C 120.197 289.350,122.554 282.653,124.807 276.600 C 125.871 273.740,127.396 269.600,128.196 267.400 C 130.671 260.587,131.589 258.131,132.308 256.400 C 132.537 255.850,133.298 253.870,134.000 252.000 C 135.742 247.359,136.162 246.278,137.108 244.000 C 140.527 235.771,148.956 211.744,150.861 204.800 C 151.072 204.030,151.405 202.860,151.600 202.200 C 152.145 200.357,152.642 198.542,153.737 194.400 C 154.289 192.310,155.030 189.520,155.384 188.200 C 164.093 155.737,162.832 109.834,152.603 87.000 C 152.308 86.340,151.744 84.990,151.350 84.001 C 150.720 82.418,147.932 76.835,146.356 74.000 C 146.050 73.450,144.931 71.612,143.868 69.915 C 141.262 65.754,141.680 64.251,145.004 65.829 C 147.265 66.902,160.015 80.611,165.621 87.998 C 167.040 89.866,168.344 91.576,168.519 91.798 C 170.789 94.660,177.925 108.073,180.013 113.400 C 180.185 113.840,180.817 115.460,181.417 117.000 C 184.005 123.644,186.176 131.114,188.392 141.003 C 192.604 159.794,194.031 175.596,195.600 220.800 C 196.679 251.861,196.624 255.611,195.075 256.557 C 193.448 257.551,190.086 248.554,187.244 235.600 C 186.978 234.390,186.602 232.680,186.407 231.800 C 186.213 230.920,185.848 229.030,185.596 227.600 C 185.345 226.170,184.987 224.190,184.800 223.200 C 183.847 218.149,183.535 216.206,182.970 211.800 C 182.081 204.868,181.666 200.898,181.198 194.859 C 180.282 183.035,176.190 157.887,173.086 145.000 L 172.219 141.400 171.960 143.400 C 171.412 147.630,171.103 196.035,171.571 204.128 C 172.995 228.730,179.283 262.842,184.782 275.800 C 184.969 276.240,185.517 277.680,186.000 279.000 C 187.015 281.775,187.294 282.484,188.126 284.400 C 188.461 285.170,189.051 286.610,189.437 287.600 C 191.366 292.537,198.545 305.913,202.749 312.400 C 213.056 328.307,227.745 342.820,240.600 349.799 C 247.081 353.317,247.660 355.113,241.773 353.439 C 240.688 353.131,239.080 352.756,238.200 352.607 C 235.121 352.084,228.042 349.074,222.329 345.860 C 209.330 338.544,193.697 322.058,184.912 306.400 C 184.233 305.190,183.272 303.480,182.777 302.600 C 178.639 295.249,174.476 285.463,171.035 275.000 C 168.525 267.367,167.704 264.566,166.346 259.000 C 165.783 256.691,164.487 250.633,163.607 246.200 C 162.910 242.689,160.483 227.888,160.196 225.400 C 159.608 220.304,159.388 220.642,155.344 232.841 C 153.273 239.089,151.413 244.560,151.210 245.000 C 151.007 245.440,150.578 246.610,150.258 247.600 C 149.938 248.590,149.371 250.210,148.999 251.200 C 148.627 252.190,147.962 253.990,147.522 255.200 C 147.082 256.410,146.573 257.760,146.391 258.200 C 146.209 258.640,145.223 261.250,144.199 264.000 C 140.141 274.900,137.453 282.035,135.532 287.000 C 129.544 302.483,125.442 313.836,122.381 323.400 C 121.255 326.920,120.189 330.160,120.012 330.600 C 119.836 331.040,119.458 332.210,119.174 333.200 C 118.889 334.190,118.546 335.180,118.411 335.400 C 117.996 336.079,117.268 338.428,116.178 342.600 C 115.603 344.800,114.963 347.230,114.756 348.000 C 114.548 348.770,114.196 350.300,113.972 351.400 C 113.748 352.500,113.381 354.210,113.157 355.200 C 112.699 357.216,112.308 360.417,112.595 359.800 C 112.697 359.580,113.323 356.880,113.985 353.800 C 115.870 345.034,118.193 336.575,118.821 336.187 C 119.012 336.069,120.559 336.817,122.259 337.849 C 127.754 341.185,146.386 349.339,152.000 350.865 C 153.302 351.219,154.353 351.515,157.400 352.389 C 158.060 352.579,159.230 352.936,160.000 353.184 C 161.338 353.615,165.350 354.530,171.400 355.785 C 186.435 358.904,213.751 358.900,228.600 355.777 C 238.958 353.599,239.659 353.504,241.762 353.983 C 245.831 354.910,245.872 354.912,246.152 354.181 C 246.298 353.799,246.164 353.100,245.854 352.627 C 245.305 351.788,245.387 351.734,249.108 350.508 L 252.925 349.249 254.007 350.408 C 254.603 351.045,255.487 352.699,255.973 354.083 C 259.348 363.705,260.240 365.600,261.394 365.600 C 262.289 365.600,262.332 364.962,262.098 355.116 L 261.873 345.633 264.637 344.360 C 273.721 340.177,276.826 338.547,282.400 335.035 C 288.518 331.180,297.475 324.777,300.610 322.017 C 333.816 292.783,351.498 260.308,356.808 218.800 C 359.546 197.406,356.242 167.575,349.077 149.000 C 348.738 148.120,347.882 145.780,347.175 143.800 C 345.910 140.258,345.163 138.548,341.408 130.600 C 339.014 125.532,331.625 113.134,329.000 109.781 C 327.900 108.376,325.830 105.660,324.400 103.746 C 322.970 101.832,319.865 98.135,317.500 95.529 L 313.200 90.792 313.148 85.496 C 313.119 82.583,312.968 78.850,312.812 77.200 L 312.529 74.200 312.486 78.000 C 312.462 80.090,312.591 84.230,312.772 87.200 C 313.575 100.323,311.488 123.528,307.953 140.797 C 307.300 143.989,306.603 147.546,306.403 148.702 C 306.002 151.032,304.372 157.956,302.849 163.800 C 302.620 164.680,302.141 166.570,301.784 168.000 C 301.428 169.430,300.981 171.140,300.791 171.800 C 299.662 175.721,299.197 177.384,298.222 181.000 C 297.866 182.320,297.221 184.570,296.789 186.000 C 296.356 187.430,294.473 194.090,292.605 200.800 C 290.736 207.510,288.852 214.170,288.417 215.600 C 287.982 217.030,287.241 219.550,286.771 221.200 C 286.301 222.850,285.776 224.650,285.605 225.200 C 285.433 225.750,285.071 227.010,284.800 228.000 C 284.529 228.990,284.169 230.250,284.000 230.800 C 283.831 231.350,283.471 232.610,283.200 233.600 C 282.929 234.590,282.569 235.850,282.400 236.400 C 282.231 236.950,281.893 238.120,281.649 239.000 C 281.405 239.880,280.316 243.750,279.230 247.600 C 276.768 256.319,271.196 278.292,269.593 285.600 C 268.650 289.900,267.460 295.631,267.185 297.200 C 266.214 302.728,265.995 304.015,265.653 306.200 C 265.446 307.520,265.170 309.050,265.039 309.600 C 264.694 311.050,263.702 318.691,262.754 327.200 C 262.112 332.964,261.895 337.951,261.772 349.760 C 261.685 358.097,261.561 364.972,261.496 365.038 C 261.049 365.484,259.471 362.711,258.401 359.600 C 258.136 358.830,257.778 357.840,257.605 357.400 C 257.433 356.960,257.054 355.790,256.764 354.800 C 255.325 349.887,254.428 349.133,246.748 346.381 C 237.030 342.900,231.351 339.206,224.722 332.053 C 222.519 329.675,215.600 320.130,215.600 319.468 C 215.600 319.366,214.873 318.084,213.983 316.621 C 208.536 307.655,204.800 296.800,207.160 296.800 C 208.806 296.800,212.373 300.995,222.467 314.800 C 228.057 322.446,238.208 333.025,244.400 337.658 C 248.217 340.514,253.000 343.600,253.610 343.600 C 254.120 343.600,254.131 343.773,253.015 334.600 C 252.272 328.486,252.366 309.104,253.172 302.600 C 253.390 300.840,253.749 297.870,253.970 296.000 C 254.192 294.130,254.552 291.520,254.772 290.200 C 254.992 288.880,255.349 286.720,255.566 285.400 C 255.929 283.189,256.291 281.155,257.167 276.400 C 258.537 268.964,264.428 245.126,266.805 237.400 C 267.278 235.860,267.816 234.060,268.000 233.400 C 268.184 232.740,268.722 230.940,269.196 229.400 C 269.670 227.860,270.565 224.890,271.185 222.800 C 272.378 218.783,276.743 204.916,277.985 201.200 C 278.390 199.990,279.297 197.110,280.002 194.800 C 280.706 192.490,281.426 190.240,281.601 189.800 C 281.776 189.360,282.314 187.650,282.798 186.000 C 283.281 184.350,284.173 181.470,284.781 179.600 C 285.389 177.730,286.113 175.390,286.390 174.400 C 286.666 173.410,287.030 172.150,287.198 171.600 C 289.954 162.572,293.194 150.381,295.171 141.600 C 295.964 138.076,296.228 136.920,297.225 132.600 C 297.429 131.720,297.961 129.020,298.409 126.600 C 298.857 124.180,299.387 121.480,299.585 120.600 C 300.035 118.606,301.115 112.349,302.000 106.600 C 302.237 105.060,302.593 102.810,302.792 101.600 C 302.990 100.390,303.346 97.870,303.582 96.000 C 303.818 94.130,304.292 90.530,304.635 88.000 C 305.901 78.670,306.738 68.666,307.179 57.600 C 307.565 47.911,307.487 48.800,307.956 48.800 C 308.152 48.800,308.415 49.385,308.540 50.100 C 308.664 50.815,308.939 52.300,309.149 53.400 C 310.412 60.006,311.032 64.215,311.582 69.938 C 311.780 71.993,312.069 73.793,312.224 73.938 C 312.554 74.244,312.135 68.000,311.611 64.800 C 311.413 63.590,311.046 61.250,310.795 59.600 C 310.544 57.950,310.184 55.880,309.994 55.000 C 309.805 54.120,309.421 52.275,309.142 50.900 C 308.759 49.013,308.468 48.400,307.955 48.400 C 307.094 48.400,306.911 49.852,306.569 59.400 C 306.203 69.637,305.094 82.200,304.556 82.200 C 304.315 82.200,303.355 81.531,302.421 80.713 L 300.725 79.225 300.960 76.913 C 301.528 71.343,301.678 59.726,301.218 57.003 C 300.600 53.349,299.915 50.987,300.232 53.600 C 301.040 60.276,301.192 62.239,301.175 65.800 C 301.165 68.000,300.997 71.150,300.801 72.800 C 300.605 74.450,300.338 76.880,300.208 78.200 C 299.849 81.843,298.187 89.889,296.779 94.800 C 291.045 114.799,287.463 123.780,285.776 122.380 C 285.095 121.815,284.989 117.344,285.577 113.967 C 285.785 112.775,286.150 110.180,286.389 108.200 C 287.119 102.163,287.620 98.316,288.005 95.800 C 288.207 94.480,288.559 92.140,288.787 90.600 C 289.016 89.060,289.578 85.280,290.037 82.200 C 290.496 79.120,291.144 75.520,291.478 74.200 C 292.289 70.993,293.109 65.172,294.015 56.200 C 295.340 43.072,295.316 43.200,296.457 43.200 C 297.425 43.200,297.867 44.257,299.299 50.000 C 299.548 50.996,299.817 51.492,299.902 51.110 C 300.138 50.043,298.107 43.821,297.277 43.070 C 296.368 42.247,296.215 42.242,295.444 43.013 M133.461 68.437 C 134.971 69.371,140.982 75.614,143.182 78.534 C 146.691 83.193,149.228 90.497,151.262 101.800 C 153.150 112.293,151.338 136.800,148.674 136.800 C 147.295 136.800,146.467 133.247,144.805 120.200 C 143.275 108.194,142.302 102.732,140.353 95.217 C 139.017 90.065,137.684 85.411,137.198 84.200 C 137.021 83.760,136.285 81.870,135.563 80.000 C 134.253 76.607,133.488 75.064,130.946 70.679 C 128.629 66.683,129.445 65.956,133.461 68.437 M282.800 85.830 C 282.800 86.676,282.583 87.372,281.565 89.800 C 281.380 90.240,280.598 92.490,279.828 94.800 C 279.057 97.110,277.415 101.880,276.178 105.400 C 274.941 108.920,273.788 112.250,273.615 112.800 C 273.242 113.988,270.502 121.453,270.018 122.600 C 269.833 123.040,269.464 124.030,269.200 124.800 C 268.936 125.570,268.557 126.605,268.360 127.100 C 268.162 127.595,267.838 128.405,267.640 128.900 C 267.443 129.395,267.064 130.430,266.800 131.200 C 266.351 132.509,266.173 132.975,265.238 135.300 C 264.216 137.841,261.544 145.022,258.147 154.351 C 256.121 159.918,251.044 175.249,249.984 179.000 C 249.798 179.660,249.471 180.830,249.258 181.600 C 249.046 182.370,248.497 184.350,248.039 186.000 C 245.676 194.511,244.627 198.512,242.797 206.000 C 241.694 210.510,240.145 216.630,239.354 219.600 C 236.536 230.180,234.128 240.353,233.199 245.600 C 232.946 247.030,232.580 249.010,232.386 250.000 C 232.040 251.763,231.651 254.972,230.811 263.000 C 229.551 275.037,230.953 290.102,234.197 299.400 C 236.830 306.944,236.706 307.205,236.957 293.600 C 237.184 281.235,237.505 277.194,239.166 265.800 C 240.705 255.238,241.329 251.608,242.949 243.800 C 247.703 220.892,250.998 209.240,256.839 194.681 C 259.141 188.941,266.308 173.928,268.621 170.000 C 272.296 163.758,274.315 164.022,273.221 170.600 C 272.711 173.668,270.646 182.548,269.546 186.400 C 269.327 187.170,268.991 188.430,268.800 189.200 C 268.609 189.970,268.274 191.230,268.054 192.000 C 267.835 192.770,267.270 194.840,266.800 196.600 C 266.330 198.360,265.793 200.340,265.608 201.000 C 265.423 201.660,264.717 204.270,264.040 206.800 C 263.363 209.330,262.437 212.750,261.982 214.400 C 257.819 229.509,255.533 239.664,253.204 253.400 C 253.017 254.500,252.662 256.570,252.415 258.000 C 252.167 259.430,251.801 261.680,251.600 263.000 C 251.399 264.320,251.038 266.570,250.797 268.000 C 250.029 272.554,248.900 281.083,248.388 286.200 C 247.294 297.112,246.774 305.678,246.535 316.700 C 246.390 323.355,246.187 328.800,246.083 328.800 C 243.489 328.800,235.097 320.972,230.645 314.400 C 222.846 302.886,218.872 294.449,214.821 280.800 C 214.331 279.150,213.608 276.810,213.214 275.600 C 212.820 274.390,212.098 271.600,211.610 269.400 C 211.121 267.200,210.361 263.870,209.919 262.000 C 208.994 258.080,206.907 246.006,206.394 241.600 C 205.175 231.143,204.483 224.385,203.976 218.000 C 203.757 215.250,203.413 211.380,203.211 209.400 C 202.306 200.553,201.995 197.544,201.598 193.800 C 200.918 187.377,200.432 182.497,200.026 178.000 C 199.817 175.690,199.456 171.730,199.223 169.200 C 198.990 166.670,198.616 162.530,198.391 160.000 C 197.181 146.387,195.839 137.906,193.264 127.600 C 191.768 121.613,189.562 113.977,188.779 112.081 C 186.042 105.448,193.973 113.681,197.757 121.400 C 200.054 126.086,200.560 127.274,201.593 130.400 C 202.066 131.830,202.609 133.360,202.800 133.800 C 203.378 135.130,204.733 139.263,205.357 141.600 C 205.680 142.810,206.320 145.150,206.779 146.800 C 207.826 150.571,210.536 162.304,211.397 166.800 C 212.547 172.806,213.706 179.579,214.373 184.200 C 214.627 185.960,214.999 188.300,215.200 189.400 C 215.540 191.267,215.743 192.684,216.814 200.700 C 217.042 202.405,217.394 204.970,217.597 206.400 C 217.799 207.830,218.162 210.620,218.403 212.600 C 218.644 214.580,219.006 217.460,219.208 219.000 C 219.410 220.540,219.772 223.330,220.013 225.200 C 220.920 232.236,221.249 234.662,221.584 236.800 C 221.774 238.010,222.160 240.665,222.442 242.700 C 222.879 245.852,224.000 248.146,224.000 245.888 C 224.000 243.408,227.535 218.758,229.462 207.800 C 231.414 196.700,231.540 196.008,231.945 194.200 C 232.142 193.320,232.609 191.175,232.982 189.433 C 233.897 185.159,235.877 177.569,236.800 174.800 C 237.057 174.030,237.416 172.860,237.599 172.200 C 238.690 168.261,243.975 154.264,247.189 146.800 C 251.172 137.551,251.910 135.966,257.250 125.200 C 265.051 109.470,278.601 86.225,280.914 84.605 C 281.937 83.889,282.800 84.450,282.800 85.830 M135.610 104.212 C 136.188 104.908,135.882 122.144,135.146 130.400 C 134.416 138.582,134.070 141.751,133.631 144.300 C 133.394 145.675,133.026 147.835,132.814 149.100 C 131.615 156.250,131.414 157.282,130.389 161.600 C 130.206 162.370,129.596 164.949,129.033 167.330 C 128.208 170.823,125.096 181.917,123.180 188.200 C 122.979 188.860,122.257 191.290,121.577 193.600 C 120.896 195.910,119.967 199.060,119.510 200.600 C 118.327 204.597,107.970 235.719,106.000 241.200 C 105.090 243.730,104.008 246.790,103.596 248.000 C 103.183 249.210,101.928 252.810,100.806 256.000 C 99.685 259.190,98.317 263.150,97.767 264.800 C 97.217 266.450,96.602 268.160,96.402 268.600 C 95.087 271.487,90.196 288.210,88.740 294.800 C 87.298 301.325,87.207 301.749,86.821 303.800 C 86.614 304.900,86.246 306.700,86.004 307.800 C 85.762 308.900,85.257 311.495,84.881 313.567 C 83.896 318.996,83.313 318.714,82.040 312.194 C 81.342 308.614,81.041 296.419,81.562 292.757 C 82.506 286.111,83.201 281.805,84.042 277.400 C 84.631 274.313,85.121 271.644,85.618 268.800 C 85.869 267.370,86.215 265.750,86.387 265.200 C 86.560 264.650,86.891 263.300,87.124 262.200 C 88.439 255.981,90.376 247.948,92.476 240.000 C 94.631 231.848,95.607 228.426,98.069 220.400 C 98.878 217.762,99.318 216.242,99.952 213.900 C 100.145 213.185,100.747 211.250,101.289 209.600 C 101.832 207.950,102.690 205.250,103.197 203.600 C 103.704 201.950,104.348 199.871,104.628 198.980 C 104.907 198.089,105.612 195.569,106.194 193.380 C 106.776 191.191,107.612 188.050,108.052 186.400 C 109.872 179.578,114.113 164.754,115.204 161.400 C 115.849 159.420,118.161 152.400,120.343 145.800 C 124.522 133.160,128.925 119.435,130.417 114.400 C 133.385 104.382,134.285 102.616,135.610 104.212 M142.148 180.100 C 142.617 181.851,142.390 185.737,141.572 189.942 C 140.077 197.626,138.453 205.498,137.598 209.200 C 136.721 213.002,132.533 228.146,131.625 230.800 C 131.437 231.350,130.893 233.150,130.416 234.800 C 129.593 237.644,128.793 240.203,127.164 245.200 C 126.353 247.685,122.486 260.364,121.978 262.200 C 121.114 265.324,120.003 269.134,119.586 270.400 C 119.333 271.170,118.974 272.430,118.789 273.200 C 118.604 273.970,118.271 275.230,118.049 276.000 C 117.444 278.098,115.888 283.754,114.418 289.200 C 112.402 296.671,107.493 316.879,106.161 323.192 C 105.814 324.838,105.367 326.488,105.168 326.859 C 104.812 327.524,103.749 332.552,102.558 339.200 C 102.223 341.070,101.861 345.750,101.754 349.600 C 101.493 358.951,101.101 360.244,99.477 357.100 C 99.107 356.385,98.638 355.530,98.435 355.200 C 97.104 353.043,95.452 347.593,94.434 342.000 C 93.131 334.841,92.878 314.098,93.995 306.000 C 94.737 300.619,95.809 294.119,96.403 291.400 C 97.690 285.503,98.490 282.066,98.776 281.200 C 98.958 280.650,99.329 279.390,99.600 278.400 C 99.872 277.410,100.433 275.655,100.847 274.500 C 102.095 271.021,103.259 267.848,103.599 267.000 C 103.775 266.560,104.136 265.570,104.400 264.800 C 104.664 264.030,105.025 263.040,105.201 262.600 C 105.378 262.160,105.880 260.810,106.318 259.600 C 107.742 255.663,113.261 241.445,114.041 239.704 C 114.458 238.772,114.800 237.832,114.800 237.616 C 114.800 237.400,115.229 236.273,115.753 235.112 C 116.277 233.950,116.842 232.550,117.008 232.000 C 117.174 231.450,117.718 230.100,118.217 229.000 C 118.715 227.900,119.750 225.470,120.516 223.600 C 124.322 214.308,127.590 206.666,132.488 195.600 C 138.728 181.504,141.383 177.244,142.148 180.100 " stroke="none" fill="#04b4fb" fill-rule="evenodd"></path></g></svg>